<?xml version="1.0" encoding="UTF-8"?>
<svg width="312px" height="312px" viewBox="0 0 312 312" version="1.1" xmlns="http://www.w3.org/2000/svg" xmlns:xlink="http://www.w3.org/1999/xlink">
    <!-- Generator: Sketch 46.2 (44496) - http://www.bohemiancoding.com/sketch -->
    <title>launch</title>
    <desc>Created with Sketch.</desc>
    <defs></defs>
    <g id="Page-1" stroke="none" stroke-width="1" fill="none" fill-rule="evenodd">
        <g id="launch" transform="translate(156.000000, 156.000000) rotate(-315.000000) translate(-156.000000, -156.000000) translate(-64.000000, -64.000000)" fill-rule="nonzero" fill="#FFFFFF">
            <path d="M219.910209,64.410209 C134.253429,64.410209 64.4102089,134.253429 64.4102089,219.910209 C64.4102089,305.566989 134.253429,375.410209 219.910209,375.410209 C305.566989,375.410209 375.410209,305.566989 375.410209,219.910209 C375.410209,134.253429 306.225887,64.410209 219.910209,64.410209 Z M219.910209,349.054277 C148.749192,349.054277 90.7661412,291.730124 90.7661412,219.910209 C90.7661412,148.090294 148.749192,90.7661412 219.910209,90.7661412 C291.071226,90.7661412 349.054277,148.749192 349.054277,219.910209 C349.054277,291.730124 291.730124,349.054277 219.910209,349.054277 Z M233.747073,157.31487 L295.024616,218.592412 L230.452582,283.164446 L212.003429,264.715294 L242.97165,233.747073 L150.725887,233.747073 L150.725887,207.391141 L246.266141,207.391141 L215.297921,176.422921 L233.747073,157.31487 Z" id="Shape" transform="translate(219.910209, 219.910209) rotate(-45.000000) translate(-219.910209, -219.910209) "></path>
        </g>
    </g>
</svg>