<?xml version="1.0" encoding="UTF-8"?>
<svg width="179px" height="64px" viewBox="0 0 179 64" version="1.1" xmlns="http://www.w3.org/2000/svg" xmlns:xlink="http://www.w3.org/1999/xlink">
    <!-- Generator: Sketch 46.2 (44496) - http://www.bohemiancoding.com/sketch -->
    <title>Group</title>
    <desc>Created with Sketch.</desc>
    <defs></defs>
    <g id="Page-1" stroke="none" stroke-width="1" fill="none" fill-rule="evenodd">
        <g id="Group" transform="translate(4.000000, -8.000000)">
            <path d="M107.972834,31.9307857 C98.7732057,16.717219 86.2465226,8.91354816 70.3927852,8.51977309 C54.5390478,8.12599801 32.9072393,15.9296689 5.49735971,31.9307857 L15.0415254,32.1857548 L1.84362069,33.6668377 L10.0833337,24.3421173" id="Line" stroke="#90A4AE" stroke-width="3" stroke-linecap="square" transform="translate(54.908228, 21.086212) rotate(9.000000) translate(-54.908228, -21.086212) "></path>
            <path d="M52.7476562,56.4023438 C52.7476562,56.695314 52.6727871,56.9020176 52.5230468,57.0224609 C52.3733065,57.1429042 52.16172,57.2291664 51.8882812,57.28125 C51.9468752,58.2838592 51.9843097,59.279943 52.0005859,60.2695312 C52.016862,61.2591195 52.0249999,62.2552033 52.0249999,63.2578125 C52.0249999,63.4140633 51.9924482,63.5345048 51.9273437,63.6191406 C51.8622392,63.7037765 51.7450528,63.7460938 51.5757812,63.7460938 C51.4325513,63.7460938 51.2909511,63.7298179 51.1509765,63.6972656 C51.0110018,63.6647134 50.8856776,63.6142582 50.7749999,63.5458984 C50.6643223,63.4775387 50.5748049,63.3863938 50.5064452,63.2724609 C50.4380855,63.1585281 50.4039062,63.0169279 50.4039062,62.8476562 L50.4039062,58.6484375 C50.4039062,58.264321 50.3973958,57.8802103 50.3843749,57.4960938 C49.8244763,57.5742191 49.264586,57.6409502 48.7046874,57.6962891 C48.1447888,57.7516279 47.5848985,57.7890624 47.0249999,57.8085938 C47.0445313,59.1953194 47.0835934,60.5820243 47.1421874,61.96875 C47.1617188,62.2552098 47.1828774,62.5351549 47.205664,62.8085938 C47.2284506,63.0820326 47.2398437,63.3554674 47.2398437,63.6289062 C47.2398437,63.7591152 47.2040367,63.8567705 47.1324218,63.921875 C47.0608069,63.9869795 46.9598964,64.0195312 46.8296874,64.0195312 C46.7320307,64.0195312 46.6278651,64.0113933 46.5171874,63.9951172 C46.4065098,63.9788411 46.2974614,63.9511721 46.190039,63.9121094 C46.0826166,63.8730467 45.9833337,63.824219 45.8921874,63.765625 C45.8010411,63.707031 45.7294273,63.6354171 45.6773437,63.5507812 C45.6578123,63.518229 45.6415364,63.4205737 45.6285155,63.2578125 C45.6154946,63.0950513 45.6041015,62.8899752 45.5943359,62.6425781 C45.5845702,62.3951811 45.5764322,62.1152359 45.5699218,61.8027344 C45.5634113,61.4902328 45.5601562,61.1679704 45.5601562,60.8359375 L45.5601562,57.828125 C45.4690099,57.828125 45.3876305,57.8069664 45.3160155,57.7646484 C45.2444006,57.7223305 45.2085937,57.6523442 45.2085937,57.5546875 C45.2085937,57.4374994 45.242773,57.3251958 45.3111327,57.2177734 C45.3794924,57.110351 45.4624994,57.0208337 45.5601562,56.9492188 L45.5601562,51.0507812 C45.5601562,50.9205723 45.58457,50.8164066 45.6333984,50.7382812 C45.6822267,50.6601559 45.7749992,50.6210938 45.9117187,50.6210938 C46.1330739,50.6210938 46.310481,50.6536455 46.4439452,50.71875 C46.5774094,50.7838545 46.6783199,50.8733718 46.7466796,50.9873047 C46.8150393,51.1012375 46.8606118,51.2379549 46.8833984,51.3974609 C46.9061849,51.5569669 46.9208332,51.7278637 46.9273437,51.9101562 C46.946875,52.7044311 46.9598957,53.4986939 46.9664062,54.2929688 C46.9729166,55.0872436 46.9859373,55.8815064 47.0054687,56.6757812 C47.5653673,56.6236977 48.1220024,56.5699873 48.6753905,56.5146484 C49.2287787,56.4593096 49.7854138,56.3763026 50.3453124,56.265625 C50.3127602,55.5755174 50.2720705,54.8919305 50.2232421,54.2148438 C50.1744137,53.537757 50.1044275,52.8541701 50.0132812,52.1640625 C49.9611976,51.83854 49.8993492,51.51465 49.8277343,51.1923828 C49.7561194,50.8701156 49.7203124,50.5429704 49.7203124,50.2109375 C49.7203124,50.0937494 49.7642573,50.0188804 49.8521484,49.9863281 C49.9400394,49.9537759 50.0328119,49.9375 50.1304687,49.9375 C50.2867194,49.9375 50.4445955,49.9635414 50.6041015,50.015625 C50.7636075,50.0677086 50.8921869,50.1588535 50.9898437,50.2890625 C51.0484377,50.3736983 51.110286,50.5511054 51.1753905,50.8212891 C51.240495,51.0914727 51.3007158,51.4121075 51.3560546,51.7832031 C51.4113934,52.1542987 51.4651038,52.5546854 51.5171874,52.984375 C51.569271,53.4140646 51.6148435,53.8258444 51.6539062,54.2197266 C51.6929689,54.6136087 51.7271482,54.9684229 51.7564452,55.2841797 C51.7857423,55.5999365 51.8036457,55.8294264 51.8101562,55.9726562 C51.8882816,55.9531249 51.969661,55.9352214 52.0542968,55.9189453 C52.1389326,55.9026692 52.220312,55.8945312 52.2984374,55.8945312 C52.4546882,55.8945312 52.5686194,55.9417313 52.6402343,56.0361328 C52.7118492,56.1305343 52.7476562,56.2526034 52.7476562,56.4023438 Z M57.9035155,59.9960938 C57.9035155,60.5625028 57.8563155,61.1272758 57.761914,61.6904297 C57.6675125,62.2535835 57.4738295,62.7858048 57.1808593,63.2871094 C57.089713,63.4368497 56.9855474,63.581705 56.8683593,63.7216797 C56.7511712,63.8616543 56.6225918,63.9886062 56.4826171,64.1025391 C56.3426425,64.2164719 56.1896492,64.3076168 56.0236327,64.3759766 C55.8576163,64.4443363 55.6834644,64.4785156 55.5011718,64.4785156 C55.214712,64.4785156 54.9656911,64.4117845 54.7541015,64.2783203 C54.5425119,64.1448561 54.360222,63.9690766 54.2072265,63.7509766 C54.0542309,63.5328765 53.9272791,63.2854832 53.8263671,63.0087891 C53.7254551,62.732095 53.6473309,62.4488947 53.5919921,62.1591797 C53.5366533,61.8694647 53.4975912,61.587892 53.4748046,61.3144531 C53.452018,61.0410143 53.4406249,60.8001312 53.4406249,60.5917969 C53.4406249,60.3574207 53.4503904,60.1002618 53.4699218,59.8203125 C53.4894531,59.5403632 53.5236325,59.2539077 53.5724609,58.9609375 C53.6212892,58.6679673 53.6863927,58.3782566 53.7677734,58.0917969 C53.849154,57.8053371 53.9549472,57.5367851 54.0851562,57.2861328 C54.2153652,57.0354805 54.3716136,56.8108734 54.5539062,56.6123047 C54.7361988,56.413736 54.9477852,56.25586 55.1886718,56.1386719 L55.1886718,56.1484375 C55.3970062,56.0377599 55.6053374,55.9824219 55.8136718,55.9824219 C55.9438808,55.9824219 56.0447912,56.0100909 56.1164062,56.0654297 C56.1880211,56.1207685 56.2205729,56.213541 56.2140624,56.34375 C56.5721371,56.4088545 56.8618478,56.5813788 57.083203,56.8613281 C57.3045583,57.1412774 57.475455,57.466795 57.5958984,57.8378906 C57.7163417,58.2089862 57.7977211,58.5898418 57.840039,58.9804688 C57.8823569,59.3710957 57.9035155,59.709634 57.9035155,59.9960938 Z M55.6964843,57.5546875 C55.5858067,57.5546875 55.481641,57.5123702 55.3839843,57.4277344 C55.2602858,57.6165374 55.1561201,57.8330066 55.0714843,58.0771484 C54.9868485,58.3212903 54.9201174,58.5719388 54.871289,58.8291016 C54.8224606,59.0862643 54.7882813,59.3450508 54.7687499,59.6054688 C54.7492186,59.8658867 54.739453,60.1100249 54.739453,60.3378906 C54.739453,60.5266937 54.7492186,60.7692042 54.7687499,61.0654297 C54.7882813,61.3616551 54.8257158,61.6595037 54.8810546,61.9589844 C54.9363934,62.258465 55.0145176,62.5384102 55.1154296,62.7988281 C55.2163416,63.0592461 55.3481762,63.2513015 55.5109374,63.375 C55.7127613,63.2578119 55.8804029,63.0706393 56.0138671,62.8134766 C56.1473313,62.5563138 56.2531245,62.2747411 56.3312499,61.96875 C56.4093753,61.6627589 56.4630857,61.3535172 56.4923827,61.0410156 C56.5216798,60.7285141 56.536328,60.4615896 56.536328,60.2402344 C56.536328,60.0774731 56.5265625,59.8658867 56.5070312,59.6054688 C56.4874998,59.3450508 56.4549481,59.079754 56.4093749,58.8095703 C56.3638018,58.5393867 56.3003259,58.2871105 56.2189452,58.0527344 C56.1375646,57.8183582 56.0350266,57.6425787 55.911328,57.5253906 C55.852734,57.544922 55.7811201,57.5546875 55.6964843,57.5546875 Z M62.4636718,57.828125 L62.4636718,57.9794922 C62.4636718,58.0283206 62.4571615,58.0755206 62.4441406,58.1210938 C62.5417973,58.472658 62.6313146,58.8258446 62.7126952,59.1806641 C62.7940759,59.5354835 62.8738277,59.8886701 62.9519531,60.2402344 C62.9910157,59.843097 63.0251951,59.4443379 63.0544921,59.0439453 C63.0837891,58.6435527 63.0984374,58.2447937 63.0984374,57.8476562 C63.0984374,57.4570293 63.0854167,57.0582703 63.0593749,56.6513672 C63.0333331,56.2444641 62.9682296,55.8554706 62.8640624,55.484375 L62.8249999,55.3476562 C62.811979,55.315104 62.8022135,55.2792971 62.7957031,55.2402344 C62.7891926,55.2011717 62.7859374,55.1621096 62.7859374,55.1230469 C62.7859374,55.0514319 62.8038409,54.9944664 62.8396484,54.9521484 C62.8754558,54.9098305 62.9194007,54.8789063 62.9714843,54.859375 C63.0235679,54.8398437 63.0821611,54.8268229 63.1472656,54.8203125 C63.21237,54.8138021 63.2709632,54.8105469 63.3230468,54.8105469 C63.485808,54.8105469 63.6550772,54.8300779 63.8308593,54.8691406 C63.9480474,54.9016929 64.0424475,54.9488929 64.1140624,55.0107422 C64.1856774,55.0725915 64.2393878,55.1458329 64.2751952,55.2304688 C64.3110027,55.3151046 64.3354165,55.4078771 64.3484374,55.5087891 C64.3614583,55.609701 64.3712239,55.7122391 64.3777343,55.8164062 C64.3777343,55.8294271 64.3793619,55.8424479 64.3826171,55.8554688 C64.3858723,55.8684896 64.3874999,55.8815104 64.3874999,55.8945312 C64.4200522,56.180991 64.444466,56.4690741 64.4607421,56.7587891 C64.4770182,57.0485041 64.4851562,57.3333319 64.4851562,57.6132812 C64.4851562,58.4856814 64.434701,59.3548134 64.333789,60.2207031 C64.232877,61.0865929 64.1108079,61.9459593 63.9675781,62.7988281 C63.9480467,62.9290371 63.9203777,63.0624993 63.8845702,63.1992188 C63.8487628,63.3359382 63.7983075,63.46289 63.7332031,63.5800781 C63.6680986,63.6972662 63.583464,63.7932939 63.4792968,63.8681641 C63.3751296,63.9430342 63.2449226,63.9804688 63.0886718,63.9804688 C62.9128897,63.9804688 62.7696619,63.9397791 62.6589843,63.8583984 C62.5483067,63.7770178 62.4587893,63.6728522 62.3904296,63.5458984 C62.3220699,63.4189447 62.2716147,63.2773445 62.2390624,63.1210938 C62.2065102,62.964843 62.1804688,62.8118497 62.1609374,62.6621094 C62.1479165,62.5904944 62.1365234,62.5253909 62.1267577,62.4667969 C62.1169921,62.4082028 62.105599,62.3528648 62.0925781,62.3007812 L61.8191406,61.0898438 C61.767057,61.2721363 61.6970707,61.5016262 61.6091796,61.7783203 C61.5212886,62.0550144 61.4268885,62.3333319 61.3259765,62.6132812 C61.2250645,62.8932306 61.1241541,63.1471343 61.0232421,63.375 C60.9223302,63.6028657 60.8393232,63.7591142 60.7742187,63.84375 C60.7026037,63.9283858 60.6114588,63.9951169 60.5007812,64.0439453 C60.3901035,64.0927737 60.2794276,64.1171875 60.1687499,64.1171875 C59.9734365,64.1171875 59.8041673,64.0553392 59.6609374,63.9316406 C59.5307284,63.8014316 59.4460939,63.6516936 59.4070312,63.4824219 C59.3679685,63.3131502 59.3386719,63.1438811 59.3191406,62.9746094 C59.3191406,62.9615885 59.317513,62.9453126 59.3142577,62.9257812 C59.3110025,62.9062499 59.3093749,62.889974 59.3093749,62.8769531 C59.2117182,62.1608037 59.1401043,61.4332719 59.0945312,60.6943359 C59.048958,59.9554 59.0261718,59.2181026 59.0261718,58.4824219 L59.0261718,56.8613281 C59.0261718,56.8027341 59.029427,56.7408857 59.0359374,56.6757812 C59.0424479,56.6106768 59.0570962,56.550456 59.0798827,56.4951172 C59.1026693,56.4397784 59.1384762,56.3958335 59.1873046,56.3632812 C59.236133,56.330729 59.3061193,56.3144531 59.3972656,56.3144531 C59.6381522,56.3144531 59.8367179,56.386067 59.9929687,56.5292969 C60.1492195,56.6725268 60.2371092,56.861327 60.2566406,57.0957031 C60.2761719,57.4082047 60.2908202,57.7239567 60.3005859,58.0429688 C60.3103515,58.3619808 60.3184895,58.6777328 60.3249999,58.9902344 C60.3315104,59.3483091 60.3363931,59.6949853 60.3396484,60.0302734 C60.3429036,60.3655616 60.3640622,60.7187481 60.4031249,61.0898438 C60.4812503,60.8359362 60.5561194,60.572267 60.6277343,60.2988281 C60.6993492,60.0253893 60.7628252,59.7486993 60.818164,59.46875 C60.8735028,59.1888007 60.9190753,58.9104832 60.9548827,58.6337891 C60.9906902,58.357095 61.0085937,58.088543 61.0085937,57.828125 C61.0085937,57.7955728 61.0069661,57.7679038 61.0037109,57.7451172 C61.0004556,57.7223306 60.9988281,57.6946616 60.9988281,57.6621094 C60.9923176,57.6295571 60.9890624,57.5970054 60.9890624,57.5644531 L60.9890624,57.4667969 C60.9890624,57.3040356 61.0248694,57.1835941 61.0964843,57.1054688 C61.1680992,57.0273434 61.2917959,56.9882812 61.4675781,56.9882812 C61.5326825,56.9882812 61.6124344,56.9980468 61.7068359,57.0175781 C61.8012374,57.0371095 61.8956375,57.0664061 61.990039,57.1054688 C62.0844405,57.1445314 62.1707027,57.1933591 62.2488281,57.2519531 C62.3269534,57.3105472 62.3790363,57.3756507 62.4050781,57.4472656 L62.3953124,57.4472656 C62.4278647,57.5123701 62.4473957,57.5742185 62.4539062,57.6328125 C62.4604166,57.6914065 62.4636718,57.7565101 62.4636718,57.828125 Z M70.3535156,55.7871094 C70.3535156,55.897787 70.3291017,55.9775388 70.2802734,56.0263672 C70.231445,56.0751956 70.1419277,56.0996094 70.0117187,56.0996094 C69.9531246,56.0996094 69.8619797,56.0914714 69.7382812,56.0751953 C69.6145827,56.0589192 69.4892584,56.0345054 69.3623046,56.0019531 C69.2353509,55.9694009 69.1246749,55.9238284 69.0302734,55.8652344 C68.9358719,55.8066403 68.8886718,55.7350265 68.8886718,55.6503906 C68.8886718,55.6243488 68.8984373,55.5511074 68.9179687,55.4306641 C68.9375,55.3102208 68.9619139,55.1816413 68.9912109,55.0449219 C69.0205079,54.9082024 69.0465493,54.7845058 69.0693359,54.6738281 C69.0921225,54.5631505 69.1100259,54.5013021 69.1230468,54.4882812 L69.1230468,54.4980469 C69.1555991,54.4459633 69.1946612,54.4134115 69.2402343,54.4003906 C69.2858075,54.3873697 69.3313799,54.3808594 69.3769531,54.3808594 C69.4355471,54.3808594 69.5120437,54.3889973 69.6064453,54.4052734 C69.7008468,54.4215496 69.7952469,54.4443358 69.8896484,54.4736328 C69.9840499,54.5029298 70.070312,54.5403644 70.1484374,54.5859375 C70.2265628,54.6315106 70.2753905,54.6803383 70.2949218,54.7324219 C70.3144532,54.7845055 70.3258463,54.8544917 70.3291015,54.9423828 C70.3323567,55.0302739 70.3307291,55.1100257 70.3242187,55.1816406 C70.3242187,55.2076824 70.3225911,55.2386066 70.3193359,55.2744141 C70.3160807,55.3102215 70.3144531,55.3378905 70.3144531,55.3574219 C70.3144531,55.3899741 70.3160807,55.4225259 70.3193359,55.4550781 C70.3225911,55.4876304 70.3274739,55.5201821 70.3339843,55.5527344 C70.3404948,55.5852866 70.3453775,55.6210936 70.3486328,55.6601562 C70.351888,55.6992189 70.3535156,55.7415362 70.3535156,55.7871094 Z M70.7148437,63.5703125 C70.7148437,63.7200528 70.6806643,63.825846 70.6123046,63.8876953 C70.5439449,63.9495446 70.4348965,63.9804688 70.2851562,63.9804688 C70.2070308,63.9804688 70.1207686,63.9707032 70.0263671,63.9511719 C69.9319656,63.9316405 69.8391931,63.9039715 69.7480468,63.8681641 C69.6569005,63.8323566 69.572266,63.7884117 69.4941406,63.7363281 C69.4160152,63.6842445 69.357422,63.6256514 69.3183593,63.5605469 C69.2923175,63.5214842 69.2695313,63.4010427 69.2499999,63.1992188 C69.2304686,62.9973948 69.2158203,62.7467463 69.2060546,62.4472656 C69.196289,62.147785 69.1865234,61.8125019 69.1767578,61.4414062 C69.1669921,61.0703106 69.1604817,60.6959654 69.1572265,60.3183594 C69.1539713,59.9407533 69.1523437,59.5729185 69.1523437,59.2148438 L69.1523437,57.5253906 C69.1523437,57.4602861 69.1539713,57.3951826 69.1572265,57.3300781 C69.1604817,57.2649736 69.1735024,57.2080081 69.196289,57.1591797 C69.2190756,57.1103513 69.2548825,57.0696616 69.3037109,57.0371094 C69.3525392,57.0045571 69.4225255,56.9882812 69.5136718,56.9882812 C69.8001316,56.9882812 70.0100904,57.0680331 70.1435546,57.2275391 C70.2770188,57.3870451 70.3600258,57.6002591 70.3925781,57.8671875 C70.4251303,58.2643249 70.4495441,58.6598288 70.4658203,59.0537109 C70.4820964,59.4475931 70.4967447,59.8463521 70.5097656,60.25 C70.5227865,60.6145852 70.5341796,60.9742821 70.5439453,61.3291016 C70.5537109,61.683921 70.5748696,62.0371076 70.6074218,62.3886719 C70.6139323,62.4602868 70.6204426,62.5286455 70.6269531,62.59375 C70.6334635,62.6588545 70.643229,62.723958 70.6562499,62.7890625 C70.6692708,62.9192715 70.6822915,63.0478509 70.6953124,63.1748047 C70.7083333,63.3017584 70.7148437,63.4335931 70.7148437,63.5703125 Z M74.0542968,63.7558594 C74.0542968,63.8274743 74.0380209,63.8876951 74.0054687,63.9365234 C73.9729165,63.9853518 73.9322268,64.0227863 73.8833984,64.0488281 C73.83457,64.0748699 73.7824872,64.0927734 73.7271484,64.1025391 C73.6718096,64.1123047 73.6180992,64.1171875 73.5660156,64.1171875 C73.4944006,64.1171875 73.4113936,64.1090496 73.3169921,64.0927734 C73.2225906,64.0764973 73.1298181,64.0520835 73.0386718,64.0195312 C72.9475255,63.986979 72.8645185,63.9462893 72.7896484,63.8974609 C72.7147782,63.8486326 72.6578126,63.7884118 72.6187499,63.7167969 C72.5796873,63.6516924 72.5455079,63.5296233 72.5162109,63.3505859 C72.4869139,63.1715486 72.4625,62.9632173 72.4429687,62.7255859 C72.4234373,62.4879545 72.4071615,62.2340508 72.3941406,61.9638672 C72.3811197,61.6936835 72.3697266,61.4348971 72.3599609,61.1875 C72.3501952,60.9401029 72.3436849,60.7171234 72.3404296,60.5185547 C72.3371744,60.319986 72.3355468,60.1718755 72.3355468,60.0742188 C72.3355468,59.6184873 72.3436848,59.177411 72.3599609,58.7509766 C72.376237,58.3245421 72.3941405,57.886721 72.4136718,57.4375 C72.3811196,57.4375 72.3485678,57.4407552 72.3160156,57.4472656 C72.2834633,57.4537761 72.2509116,57.4570312 72.2183593,57.4570312 C72.1337235,57.4700521 72.0474613,57.4798177 71.9595703,57.4863281 C71.8716792,57.4928386 71.7821619,57.4960938 71.6910156,57.4960938 C71.5803379,57.4960938 71.4826827,57.4765627 71.3980468,57.4375 C71.313411,57.3984373 71.2710937,57.3105476 71.2710937,57.1738281 C71.2710937,57.0110669 71.3069006,56.8808599 71.3785156,56.7832031 C71.4501305,56.6855464 71.5412754,56.6090498 71.6519531,56.5537109 C71.7626307,56.4983721 71.8830722,56.45931 72.0132812,56.4365234 C72.1434902,56.4137369 72.270442,56.3958334 72.3941406,56.3828125 C72.4136719,56.3828125 72.4266926,56.3811849 72.4332031,56.3779297 C72.4397135,56.3746745 72.4527342,56.3730469 72.4722656,56.3730469 C72.478776,56.2949215 72.4852864,56.1988938 72.4917968,56.0849609 C72.4983073,55.9710281 72.5048176,55.8457038 72.5113281,55.7089844 C72.5178385,55.4941396 72.527604,55.2646497 72.5406249,55.0205078 C72.5536458,54.776366 72.5666665,54.5419933 72.5796874,54.3173828 C72.5927083,54.0927723 72.6089842,53.8942066 72.6285156,53.7216797 C72.6480469,53.5491528 72.667578,53.4270837 72.6871093,53.3554688 C72.7196616,53.2708329 72.7570961,53.2024742 72.799414,53.1503906 C72.8417319,53.098307 72.9214837,53.0722656 73.0386718,53.0722656 C73.2990898,53.0722656 73.5009107,53.1569002 73.6441406,53.3261719 C73.7873705,53.4954436 73.8589843,53.7037748 73.8589843,53.9511719 C73.8589843,54.2376316 73.8508464,54.5240871 73.8345703,54.8105469 C73.8182941,55.0970066 73.8036458,55.3867173 73.7906249,55.6796875 L73.7613281,56.1777344 C73.9240893,56.158203 74.0868481,56.1289064 74.2496093,56.0898438 C74.4058601,56.0572915 74.5637361,56.0279949 74.7232421,56.0019531 C74.8827481,55.9759113 75.037369,55.9628906 75.1871093,55.9628906 C75.3173183,55.9628906 75.4182288,55.99707 75.4898437,56.0654297 C75.5614586,56.1337894 75.5972656,56.2330723 75.5972656,56.3632812 C75.5972656,56.5065111 75.5712242,56.6464837 75.5191406,56.7832031 C75.467057,56.9199226 75.3759121,57.0240882 75.2457031,57.0957031 L75.2554687,57.0957031 C75.2294269,57.108724 75.1513027,57.1266275 75.0210937,57.1494141 C74.8908847,57.1722006 74.7427742,57.1933593 74.5767578,57.2128906 C74.4107413,57.232422 74.2479825,57.251953 74.0884765,57.2714844 C73.9289705,57.2910157 73.8101566,57.3040364 73.7320312,57.3105469 L73.7222656,57.3105469 C73.7092447,57.675132 73.6994791,58.034829 73.6929687,58.3896484 C73.6864582,58.7444679 73.6832031,59.1041648 73.6832031,59.46875 C73.6832031,59.9700546 73.6978514,60.5022758 73.7271484,61.0654297 C73.7564454,61.6285835 73.8069006,62.16406 73.8785156,62.671875 L73.9566406,63.1113281 C73.9826824,63.2220058 74.0054686,63.3310542 74.0249999,63.4384766 C74.0445313,63.545899 74.0542968,63.6516922 74.0542968,63.7558594 Z M82.9792968,57.828125 L82.9792968,57.9794922 C82.9792968,58.0283206 82.9727865,58.0755206 82.9597656,58.1210938 C83.0574223,58.472658 83.1469397,58.8258446 83.2283203,59.1806641 C83.3097009,59.5354835 83.3894527,59.8886701 83.4675781,60.2402344 C83.5066408,59.843097 83.5408201,59.4443379 83.5701171,59.0439453 C83.5994142,58.6435527 83.6140625,58.2447937 83.6140625,57.8476562 C83.6140625,57.4570293 83.6010418,57.0582703 83.575,56.6513672 C83.5489582,56.2444641 83.4838546,55.8554706 83.3796875,55.484375 L83.340625,55.3476562 C83.3276041,55.315104 83.3178385,55.2792971 83.3113281,55.2402344 C83.3048176,55.2011717 83.3015625,55.1621096 83.3015625,55.1230469 C83.3015625,55.0514319 83.3194659,54.9944664 83.3552734,54.9521484 C83.3910809,54.9098305 83.4350257,54.8789063 83.4871093,54.859375 C83.5391929,54.8398437 83.5977861,54.8268229 83.6628906,54.8203125 C83.7279951,54.8138021 83.7865882,54.8105469 83.8386718,54.8105469 C84.0014331,54.8105469 84.1707022,54.8300779 84.3464843,54.8691406 C84.4636724,54.9016929 84.5580725,54.9488929 84.6296875,55.0107422 C84.7013024,55.0725915 84.7550128,55.1458329 84.7908203,55.2304688 C84.8266277,55.3151046 84.8510416,55.4078771 84.8640625,55.5087891 C84.8770834,55.609701 84.8868489,55.7122391 84.8933593,55.8164062 C84.8933593,55.8294271 84.8949869,55.8424479 84.8982421,55.8554688 C84.9014974,55.8684896 84.903125,55.8815104 84.903125,55.8945312 C84.9356772,56.180991 84.960091,56.4690741 84.9763671,56.7587891 C84.9926433,57.0485041 85.0007812,57.3333319 85.0007812,57.6132812 C85.0007812,58.4856814 84.950326,59.3548134 84.849414,60.2207031 C84.7485021,61.0865929 84.626433,61.9459593 84.4832031,62.7988281 C84.4636717,62.9290371 84.4360027,63.0624993 84.4001953,63.1992188 C84.3643878,63.3359382 84.3139326,63.46289 84.2488281,63.5800781 C84.1837236,63.6972662 84.099089,63.7932939 83.9949218,63.8681641 C83.8907546,63.9430342 83.7605476,63.9804688 83.6042968,63.9804688 C83.4285147,63.9804688 83.285287,63.9397791 83.1746093,63.8583984 C83.0639317,63.7770178 82.9744144,63.6728522 82.9060546,63.5458984 C82.8376949,63.4189447 82.7872397,63.2773445 82.7546875,63.1210938 C82.7221352,62.964843 82.6960938,62.8118497 82.6765625,62.6621094 C82.6635416,62.5904944 82.6521484,62.5253909 82.6423828,62.4667969 C82.6326171,62.4082028 82.621224,62.3528648 82.6082031,62.3007812 L82.3347656,61.0898438 C82.282682,61.2721363 82.2126957,61.5016262 82.1248046,61.7783203 C82.0369136,62.0550144 81.9425135,62.3333319 81.8416015,62.6132812 C81.7406896,62.8932306 81.6397791,63.1471343 81.5388671,63.375 C81.4379552,63.6028657 81.3549482,63.7591142 81.2898437,63.84375 C81.2182288,63.9283858 81.1270838,63.9951169 81.0164062,64.0439453 C80.9057286,64.0927737 80.7950526,64.1171875 80.684375,64.1171875 C80.4890615,64.1171875 80.3197923,64.0553392 80.1765625,63.9316406 C80.0463535,63.8014316 79.9617189,63.6516936 79.9226562,63.4824219 C79.8835935,63.3131502 79.8542969,63.1438811 79.8347656,62.9746094 C79.8347656,62.9615885 79.833138,62.9453126 79.8298828,62.9257812 C79.8266275,62.9062499 79.825,62.889974 79.825,62.8769531 C79.7273432,62.1608037 79.6557294,61.4332719 79.6101562,60.6943359 C79.5645831,59.9554 79.5417968,59.2181026 79.5417968,58.4824219 L79.5417968,56.8613281 C79.5417968,56.8027341 79.545052,56.7408857 79.5515625,56.6757812 C79.5580729,56.6106768 79.5727212,56.550456 79.5955078,56.4951172 C79.6182943,56.4397784 79.6541013,56.3958335 79.7029296,56.3632812 C79.751758,56.330729 79.8217443,56.3144531 79.9128906,56.3144531 C80.1537772,56.3144531 80.3523429,56.386067 80.5085937,56.5292969 C80.6648445,56.6725268 80.7527342,56.861327 80.7722656,57.0957031 C80.7917969,57.4082047 80.8064452,57.7239567 80.8162109,58.0429688 C80.8259766,58.3619808 80.8341145,58.6777328 80.840625,58.9902344 C80.8471354,59.3483091 80.8520182,59.6949853 80.8552734,60.0302734 C80.8585286,60.3655616 80.8796873,60.7187481 80.91875,61.0898438 C80.9968753,60.8359362 81.0717444,60.572267 81.1433593,60.2988281 C81.2149743,60.0253893 81.2784502,59.7486993 81.333789,59.46875 C81.3891278,59.1888007 81.4347003,58.9104832 81.4705078,58.6337891 C81.5063152,58.357095 81.5242187,58.088543 81.5242187,57.828125 C81.5242187,57.7955728 81.5225911,57.7679038 81.5193359,57.7451172 C81.5160807,57.7223306 81.5144531,57.6946616 81.5144531,57.6621094 C81.5079426,57.6295571 81.5046875,57.5970054 81.5046875,57.5644531 L81.5046875,57.4667969 C81.5046875,57.3040356 81.5404944,57.1835941 81.6121093,57.1054688 C81.6837243,57.0273434 81.807421,56.9882812 81.9832031,56.9882812 C82.0483076,56.9882812 82.1280594,56.9980468 82.2224609,57.0175781 C82.3168624,57.0371095 82.4112625,57.0664061 82.505664,57.1054688 C82.6000655,57.1445314 82.6863277,57.1933591 82.7644531,57.2519531 C82.8425785,57.3105472 82.8946613,57.3756507 82.9207031,57.4472656 L82.9109375,57.4472656 C82.9434897,57.5123701 82.9630208,57.5742185 82.9695312,57.6328125 C82.9760417,57.6914065 82.9792968,57.7565101 82.9792968,57.828125 Z M87.5394531,55.7871094 C87.5394531,55.897787 87.5150393,55.9775388 87.4662109,56.0263672 C87.4173825,56.0751956 87.3278652,56.0996094 87.1976562,56.0996094 C87.1390622,56.0996094 87.0479172,56.0914714 86.9242187,56.0751953 C86.8005202,56.0589192 86.6751959,56.0345054 86.5482422,56.0019531 C86.4212884,55.9694009 86.3106124,55.9238284 86.2162109,55.8652344 C86.1218094,55.8066403 86.0746093,55.7350265 86.0746093,55.6503906 C86.0746093,55.6243488 86.0843749,55.5511074 86.1039062,55.4306641 C86.1234376,55.3102208 86.1478514,55.1816413 86.1771484,55.0449219 C86.2064454,54.9082024 86.2324868,54.7845058 86.2552734,54.6738281 C86.27806,54.5631505 86.2959634,54.5013021 86.3089843,54.4882812 L86.3089843,54.4980469 C86.3415366,54.4459633 86.3805987,54.4134115 86.4261718,54.4003906 C86.471745,54.3873697 86.5173174,54.3808594 86.5628906,54.3808594 C86.6214846,54.3808594 86.6979813,54.3889973 86.7923828,54.4052734 C86.8867843,54.4215496 86.9811844,54.4443358 87.0755859,54.4736328 C87.1699874,54.5029298 87.2562496,54.5403644 87.334375,54.5859375 C87.4125004,54.6315106 87.461328,54.6803383 87.4808593,54.7324219 C87.5003907,54.7845055 87.5117838,54.8544917 87.515039,54.9423828 C87.5182943,55.0302739 87.5166667,55.1100257 87.5101562,55.1816406 C87.5101562,55.2076824 87.5085286,55.2386066 87.5052734,55.2744141 C87.5020182,55.3102215 87.5003906,55.3378905 87.5003906,55.3574219 C87.5003906,55.3899741 87.5020182,55.4225259 87.5052734,55.4550781 C87.5085286,55.4876304 87.5134114,55.5201821 87.5199218,55.5527344 C87.5264323,55.5852866 87.5313151,55.6210936 87.5345703,55.6601562 C87.5378255,55.6992189 87.5394531,55.7415362 87.5394531,55.7871094 Z M87.9007812,63.5703125 C87.9007812,63.7200528 87.8666019,63.825846 87.7982422,63.8876953 C87.7298824,63.9495446 87.620834,63.9804688 87.4710937,63.9804688 C87.3929683,63.9804688 87.3067062,63.9707032 87.2123047,63.9511719 C87.1179031,63.9316405 87.0251306,63.9039715 86.9339843,63.8681641 C86.8428381,63.8323566 86.7582035,63.7884117 86.6800781,63.7363281 C86.6019527,63.6842445 86.5433595,63.6256514 86.5042968,63.5605469 C86.478255,63.5214842 86.4554688,63.4010427 86.4359375,63.1992188 C86.4164061,62.9973948 86.4017578,62.7467463 86.3919922,62.4472656 C86.3822265,62.147785 86.372461,61.8125019 86.3626953,61.4414062 C86.3529296,61.0703106 86.3464193,60.6959654 86.343164,60.3183594 C86.3399088,59.9407533 86.3382812,59.5729185 86.3382812,59.2148438 L86.3382812,57.5253906 C86.3382812,57.4602861 86.3399088,57.3951826 86.343164,57.3300781 C86.3464193,57.2649736 86.35944,57.2080081 86.3822265,57.1591797 C86.4050131,57.1103513 86.44082,57.0696616 86.4896484,57.0371094 C86.5384768,57.0045571 86.6084631,56.9882812 86.6996093,56.9882812 C86.9860691,56.9882812 87.1960279,57.0680331 87.3294922,57.2275391 C87.4629564,57.3870451 87.5459633,57.6002591 87.5785156,57.8671875 C87.6110678,58.2643249 87.6354817,58.6598288 87.6517578,59.0537109 C87.6680339,59.4475931 87.6826822,59.8463521 87.6957031,60.25 C87.708724,60.6145852 87.7201171,60.9742821 87.7298828,61.3291016 C87.7396485,61.683921 87.7608071,62.0371076 87.7933593,62.3886719 C87.7998698,62.4602868 87.8063801,62.5286455 87.8128906,62.59375 C87.819401,62.6588545 87.8291666,62.723958 87.8421875,62.7890625 C87.8552084,62.9192715 87.8682291,63.0478509 87.88125,63.1748047 C87.8942709,63.3017584 87.9007812,63.4335931 87.9007812,63.5703125 Z M91.6601562,64.2832031 C91.6601562,64.3743494 91.63737,64.4492185 91.5917968,64.5078125 C91.5462237,64.5664065 91.4892581,64.6136066 91.4208984,64.6494141 C91.3525387,64.6852215 91.2776696,64.7112629 91.196289,64.7275391 C91.1149084,64.7438152 91.041667,64.7519531 90.9765625,64.7519531 C90.7486967,64.7519531 90.550131,64.6868496 90.3808593,64.5566406 C90.2115877,64.4264316 90.0651048,64.2587901 89.9414062,64.0537109 C89.8177077,63.8486318 89.7167972,63.6142591 89.6386718,63.3505859 C89.5605465,63.0869127 89.4954429,62.8232435 89.4433593,62.5595703 C89.3912758,62.2958971 89.3522136,62.0419934 89.3261718,61.7978516 C89.30013,61.5537097 89.280599,61.3437509 89.2675781,61.1679688 C89.2089841,60.562497 89.1682944,59.9472687 89.1455078,59.3222656 C89.1227212,58.6972625 89.1113281,58.0787791 89.1113281,57.4667969 C89.1113281,55.7936114 89.1699213,54.136727 89.2871093,52.4960938 C89.2871093,52.470052 89.2887369,52.4407554 89.2919922,52.4082031 C89.2952474,52.3756509 89.296875,52.3430991 89.296875,52.3105469 C89.3033854,52.1738274 89.3098958,52.0159514 89.3164062,51.8369141 C89.3229167,51.6578767 89.3326822,51.4804696 89.3457031,51.3046875 C89.358724,51.1289054 89.3733723,50.9677742 89.3896484,50.8212891 C89.4059245,50.674804 89.4270832,50.5722659 89.453125,50.5136719 L89.453125,50.5234375 C89.4791668,50.4322912 89.5149737,50.3639325 89.5605468,50.3183594 C89.60612,50.2727862 89.6842442,50.25 89.7949218,50.25 C90.029298,50.25 90.2278637,50.3281242 90.390625,50.484375 C90.5533862,50.6406258 90.6347656,50.8359363 90.6347656,51.0703125 C90.6347656,51.1223961 90.633138,51.1728513 90.6298828,51.2216797 C90.6266276,51.2705081 90.6217448,51.3177081 90.6152343,51.3632812 C90.6087239,51.4088544 90.6038411,51.4527993 90.6005859,51.4951172 C90.5973307,51.5374351 90.5957031,51.5748696 90.5957031,51.6074219 C90.5761717,51.8613294 90.5615235,52.1136055 90.5517578,52.3642578 C90.5419921,52.6149101 90.530599,52.8671862 90.5175781,53.1210938 C90.4850258,53.6809924 90.460612,54.239255 90.4443359,54.7958984 C90.4280598,55.3525418 90.4199218,55.9140597 90.4199218,56.4804688 C90.4199218,56.7213554 90.423177,57.0371074 90.4296875,57.4277344 C90.4361979,57.8183613 90.4492186,58.2431618 90.46875,58.7021484 C90.4882813,59.1611351 90.5159503,59.6347632 90.5517578,60.1230469 C90.5875653,60.6113306 90.6347653,61.0768207 90.6933593,61.5195312 C90.7519534,61.9622418 90.8219397,62.3626284 90.9033203,62.7207031 C90.9847009,63.0787778 91.0807286,63.3554678 91.1914062,63.5507812 C91.2500003,63.576823 91.3069658,63.6175127 91.3623047,63.6728516 C91.4176435,63.7281904 91.4664711,63.7900387 91.508789,63.8583984 C91.551107,63.9267582 91.5869139,63.998372 91.6162109,64.0732422 C91.6455079,64.1481124 91.6601562,64.2180986 91.6601562,64.2832031 Z M94.8042969,64.2832031 C94.8042969,64.3743494 94.7815106,64.4492185 94.7359375,64.5078125 C94.6903643,64.5664065 94.6333988,64.6136066 94.565039,64.6494141 C94.4966793,64.6852215 94.4218103,64.7112629 94.3404297,64.7275391 C94.259049,64.7438152 94.1858076,64.7519531 94.1207031,64.7519531 C93.8928374,64.7519531 93.6942717,64.6868496 93.525,64.5566406 C93.3557283,64.4264316 93.2092454,64.2587901 93.0855469,64.0537109 C92.9618483,63.8486318 92.8609379,63.6142591 92.7828125,63.3505859 C92.7046871,63.0869127 92.6395836,62.8232435 92.5875,62.5595703 C92.5354164,62.2958971 92.4963543,62.0419934 92.4703125,61.7978516 C92.4442707,61.5537097 92.4247396,61.3437509 92.4117187,61.1679688 C92.3531247,60.562497 92.312435,59.9472687 92.2896484,59.3222656 C92.2668618,58.6972625 92.2554687,58.0787791 92.2554687,57.4667969 C92.2554687,55.7936114 92.3140619,54.136727 92.43125,52.4960938 C92.43125,52.470052 92.4328776,52.4407554 92.4361328,52.4082031 C92.439388,52.3756509 92.4410156,52.3430991 92.4410156,52.3105469 C92.4475261,52.1738274 92.4540364,52.0159514 92.4605469,51.8369141 C92.4670573,51.6578767 92.4768228,51.4804696 92.4898437,51.3046875 C92.5028646,51.1289054 92.5175129,50.9677742 92.533789,50.8212891 C92.5500652,50.674804 92.5712238,50.5722659 92.5972656,50.5136719 L92.5972656,50.5234375 C92.6233074,50.4322912 92.6591143,50.3639325 92.7046875,50.3183594 C92.7502606,50.2727862 92.8283848,50.25 92.9390625,50.25 C93.1734386,50.25 93.3720044,50.3281242 93.5347656,50.484375 C93.6975268,50.6406258 93.7789062,50.8359363 93.7789062,51.0703125 C93.7789062,51.1223961 93.7772786,51.1728513 93.7740234,51.2216797 C93.7707682,51.2705081 93.7658854,51.3177081 93.759375,51.3632812 C93.7528645,51.4088544 93.7479818,51.4527993 93.7447265,51.4951172 C93.7414713,51.5374351 93.7398437,51.5748696 93.7398437,51.6074219 C93.7203124,51.8613294 93.7056641,52.1136055 93.6958984,52.3642578 C93.6861327,52.6149101 93.6747396,52.8671862 93.6617187,53.1210938 C93.6291665,53.6809924 93.6047527,54.239255 93.5884765,54.7958984 C93.5722004,55.3525418 93.5640625,55.9140597 93.5640625,56.4804688 C93.5640625,56.7213554 93.5673177,57.0371074 93.5738281,57.4277344 C93.5803386,57.8183613 93.5933593,58.2431618 93.6128906,58.7021484 C93.6324219,59.1611351 93.6600909,59.6347632 93.6958984,60.1230469 C93.7317059,60.6113306 93.7789059,61.0768207 93.8375,61.5195312 C93.896094,61.9622418 93.9660803,62.3626284 94.0474609,62.7207031 C94.1288415,63.0787778 94.2248692,63.3554678 94.3355469,63.5507812 C94.3941409,63.576823 94.4511065,63.6175127 94.5064453,63.6728516 C94.5617841,63.7281904 94.6106117,63.7900387 94.6529297,63.8583984 C94.6952476,63.9267582 94.7310545,63.998372 94.7603515,64.0732422 C94.7896486,64.1481124 94.8042969,64.2180986 94.8042969,64.2832031 Z M101.278125,64.2832031 C101.278125,64.3743494 101.255339,64.4492185 101.209766,64.5078125 C101.164192,64.5664065 101.107227,64.6136066 101.038867,64.6494141 C100.970507,64.6852215 100.895638,64.7112629 100.814258,64.7275391 C100.732877,64.7438152 100.659636,64.7519531 100.594531,64.7519531 C100.366666,64.7519531 100.1681,64.6868496 99.9988281,64.5566406 C99.8295564,64.4264316 99.6830735,64.2587901 99.559375,64.0537109 C99.4356765,63.8486318 99.334766,63.6142591 99.2566406,63.3505859 C99.1785152,63.0869127 99.1134117,62.8232435 99.0613281,62.5595703 C99.0092445,62.2958971 98.9701824,62.0419934 98.9441406,61.7978516 C98.9180988,61.5537097 98.8985678,61.3437509 98.8855469,61.1679688 C98.8269528,60.562497 98.7862631,59.9472687 98.7634766,59.3222656 C98.74069,58.6972625 98.7292969,58.0787791 98.7292969,57.4667969 C98.7292969,55.7936114 98.78789,54.136727 98.9050781,52.4960938 C98.9050781,52.470052 98.9067057,52.4407554 98.9099609,52.4082031 C98.9132162,52.3756509 98.9148437,52.3430991 98.9148437,52.3105469 C98.9213542,52.1738274 98.9278645,52.0159514 98.934375,51.8369141 C98.9408854,51.6578767 98.950651,51.4804696 98.9636719,51.3046875 C98.9766928,51.1289054 98.9913411,50.9677742 99.0076172,50.8212891 C99.0238933,50.674804 99.0450519,50.5722659 99.0710937,50.5136719 L99.0710937,50.5234375 C99.0971355,50.4322912 99.1329425,50.3639325 99.1785156,50.3183594 C99.2240888,50.2727862 99.302213,50.25 99.4128906,50.25 C99.6472668,50.25 99.8458325,50.3281242 100.008594,50.484375 C100.171355,50.6406258 100.252734,50.8359363 100.252734,51.0703125 C100.252734,51.1223961 100.251107,51.1728513 100.247852,51.2216797 C100.244596,51.2705081 100.239714,51.3177081 100.233203,51.3632812 C100.226693,51.4088544 100.22181,51.4527993 100.218555,51.4951172 C100.215299,51.5374351 100.213672,51.5748696 100.213672,51.6074219 C100.194141,51.8613294 100.179492,52.1136055 100.169727,52.3642578 C100.159961,52.6149101 100.148568,52.8671862 100.135547,53.1210938 C100.102995,53.6809924 100.078581,54.239255 100.062305,54.7958984 C100.046029,55.3525418 100.037891,55.9140597 100.037891,56.4804688 C100.037891,56.7213554 100.041146,57.0371074 100.047656,57.4277344 C100.054167,57.8183613 100.067187,58.2431618 100.086719,58.7021484 C100.10625,59.1611351 100.133919,59.6347632 100.169727,60.1230469 C100.205534,60.6113306 100.252734,61.0768207 100.311328,61.5195312 C100.369922,61.9622418 100.439908,62.3626284 100.521289,62.7207031 C100.60267,63.0787778 100.698697,63.3554678 100.809375,63.5507812 C100.867969,63.576823 100.924935,63.6175127 100.980273,63.6728516 C101.035612,63.7281904 101.08444,63.7900387 101.126758,63.8583984 C101.169076,63.9267582 101.204883,63.998372 101.23418,64.0732422 C101.263477,64.1481124 101.278125,64.2180986 101.278125,64.2832031 Z M106.189844,59.9960938 C106.189844,60.5625028 106.142644,61.1272758 106.048242,61.6904297 C105.953841,62.2535835 105.760158,62.7858048 105.467187,63.2871094 C105.376041,63.4368497 105.271876,63.581705 105.154687,63.7216797 C105.037499,63.8616543 104.90892,63.9886062 104.768945,64.1025391 C104.628971,64.2164719 104.475977,64.3076168 104.309961,64.3759766 C104.143944,64.4443363 103.969793,64.4785156 103.7875,64.4785156 C103.50104,64.4785156 103.252019,64.4117845 103.04043,64.2783203 C102.82884,64.1448561 102.64655,63.9690766 102.493555,63.7509766 C102.340559,63.5328765 102.213607,63.2854832 102.112695,63.0087891 C102.011783,62.732095 101.933659,62.4488947 101.87832,62.1591797 C101.822981,61.8694647 101.783919,61.587892 101.761133,61.3144531 C101.738346,61.0410143 101.726953,60.8001312 101.726953,60.5917969 C101.726953,60.3574207 101.736719,60.1002618 101.75625,59.8203125 C101.775781,59.5403632 101.809961,59.2539077 101.858789,58.9609375 C101.907617,58.6679673 101.972721,58.3782566 102.054102,58.0917969 C102.135482,57.8053371 102.241275,57.5367851 102.371484,57.2861328 C102.501693,57.0354805 102.657942,56.8108734 102.840234,56.6123047 C103.022527,56.413736 103.234113,56.25586 103.475,56.1386719 L103.475,56.1484375 C103.683334,56.0377599 103.891666,55.9824219 104.1,55.9824219 C104.230209,55.9824219 104.331119,56.0100909 104.402734,56.0654297 C104.474349,56.1207685 104.506901,56.213541 104.500391,56.34375 C104.858465,56.4088545 105.148176,56.5813788 105.369531,56.8613281 C105.590887,57.1412774 105.761783,57.466795 105.882227,57.8378906 C106.00267,58.2089862 106.084049,58.5898418 106.126367,58.9804688 C106.168685,59.3710957 106.189844,59.709634 106.189844,59.9960938 Z M103.982812,57.5546875 C103.872135,57.5546875 103.767969,57.5123702 103.670312,57.4277344 C103.546614,57.6165374 103.442448,57.8330066 103.357812,58.0771484 C103.273177,58.3212903 103.206446,58.5719388 103.157617,58.8291016 C103.108789,59.0862643 103.074609,59.3450508 103.055078,59.6054688 C103.035547,59.8658867 103.025781,60.1100249 103.025781,60.3378906 C103.025781,60.5266937 103.035547,60.7692042 103.055078,61.0654297 C103.074609,61.3616551 103.112044,61.6595037 103.167383,61.9589844 C103.222722,62.258465 103.300846,62.5384102 103.401758,62.7988281 C103.50267,63.0592461 103.634504,63.2513015 103.797266,63.375 C103.99909,63.2578119 104.166731,63.0706393 104.300195,62.8134766 C104.43366,62.5563138 104.539453,62.2747411 104.617578,61.96875 C104.695704,61.6627589 104.749414,61.3535172 104.778711,61.0410156 C104.808008,60.7285141 104.822656,60.4615896 104.822656,60.2402344 C104.822656,60.0774731 104.812891,59.8658867 104.793359,59.6054688 C104.773828,59.3450508 104.741276,59.079754 104.695703,58.8095703 C104.65013,58.5393867 104.586654,58.2871105 104.505273,58.0527344 C104.423893,57.8183582 104.321355,57.6425787 104.197656,57.5253906 C104.139062,57.544922 104.067448,57.5546875 103.982812,57.5546875 Z M111.541016,59.9960938 C111.541016,60.5625028 111.493816,61.1272758 111.399414,61.6904297 C111.305013,62.2535835 111.11133,62.7858048 110.818359,63.2871094 C110.727213,63.4368497 110.623047,63.581705 110.505859,63.7216797 C110.388671,63.8616543 110.260092,63.9886062 110.120117,64.1025391 C109.980143,64.2164719 109.827149,64.3076168 109.661133,64.3759766 C109.495116,64.4443363 109.320964,64.4785156 109.138672,64.4785156 C108.852212,64.4785156 108.603191,64.4117845 108.391602,64.2783203 C108.180012,64.1448561 107.997722,63.9690766 107.844727,63.7509766 C107.691731,63.5328765 107.564779,63.2854832 107.463867,63.0087891 C107.362955,62.732095 107.284831,62.4488947 107.229492,62.1591797 C107.174153,61.8694647 107.135091,61.587892 107.112305,61.3144531 C107.089518,61.0410143 107.078125,60.8001312 107.078125,60.5917969 C107.078125,60.3574207 107.087891,60.1002618 107.107422,59.8203125 C107.126953,59.5403632 107.161133,59.2539077 107.209961,58.9609375 C107.258789,58.6679673 107.323893,58.3782566 107.405273,58.0917969 C107.486654,57.8053371 107.592447,57.5367851 107.722656,57.2861328 C107.852865,57.0354805 108.009114,56.8108734 108.191406,56.6123047 C108.373699,56.413736 108.585285,56.25586 108.826172,56.1386719 L108.826172,56.1484375 C109.034506,56.0377599 109.242838,55.9824219 109.451172,55.9824219 C109.581381,55.9824219 109.682291,56.0100909 109.753906,56.0654297 C109.825521,56.1207685 109.858073,56.213541 109.851562,56.34375 C110.209637,56.4088545 110.499348,56.5813788 110.720703,56.8613281 C110.942058,57.1412774 111.112955,57.466795 111.233398,57.8378906 C111.353842,58.2089862 111.435221,58.5898418 111.477539,58.9804688 C111.519857,59.3710957 111.541016,59.709634 111.541016,59.9960938 Z M109.333984,57.5546875 C109.223307,57.5546875 109.119141,57.5123702 109.021484,57.4277344 C108.897786,57.6165374 108.79362,57.8330066 108.708984,58.0771484 C108.624349,58.3212903 108.557617,58.5719388 108.508789,58.8291016 C108.459961,59.0862643 108.425781,59.3450508 108.40625,59.6054688 C108.386719,59.8658867 108.376953,60.1100249 108.376953,60.3378906 C108.376953,60.5266937 108.386719,60.7692042 108.40625,61.0654297 C108.425781,61.3616551 108.463216,61.6595037 108.518555,61.9589844 C108.573894,62.258465 108.652018,62.5384102 108.75293,62.7988281 C108.853842,63.0592461 108.985676,63.2513015 109.148438,63.375 C109.350261,63.2578119 109.517903,63.0706393 109.651367,62.8134766 C109.784831,62.5563138 109.890625,62.2747411 109.96875,61.96875 C110.046875,61.6627589 110.100586,61.3535172 110.129883,61.0410156 C110.15918,60.7285141 110.173828,60.4615896 110.173828,60.2402344 C110.173828,60.0774731 110.164063,59.8658867 110.144531,59.6054688 C110.125,59.3450508 110.092448,59.079754 110.046875,58.8095703 C110.001302,58.5393867 109.937826,58.2871105 109.856445,58.0527344 C109.775065,57.8183582 109.672527,57.6425787 109.548828,57.5253906 C109.490234,57.544922 109.41862,57.5546875 109.333984,57.5546875 Z M117.439063,64.1464844 C117.439063,64.2180993 117.4,64.2832028 117.321875,64.3417969 C117.24375,64.4003909 117.154232,64.4492186 117.05332,64.4882812 C116.952408,64.5273439 116.84987,64.5582681 116.745703,64.5810547 C116.641536,64.6038413 116.560157,64.6152344 116.501563,64.6152344 C116.390885,64.6152344 116.289974,64.5940757 116.198828,64.5517578 C116.107682,64.5094399 116.023047,64.4557295 115.944922,64.390625 C115.866796,64.3255205 115.793555,64.2539066 115.725195,64.1757812 C115.656836,64.0976559 115.59336,64.0195316 115.534766,63.9414062 C115.3069,63.6614569 115.072527,63.3489601 114.831641,63.0039062 C114.590754,62.6588524 114.375912,62.3300797 114.187109,62.0175781 C114.187109,62.0436199 114.190365,62.0761717 114.196875,62.1152344 C114.203385,62.1542971 114.206641,62.1868488 114.206641,62.2128906 C114.219662,62.3496101 114.231055,62.4846999 114.24082,62.6181641 C114.250586,62.7516283 114.265234,62.8867181 114.284766,63.0234375 C114.291276,63.1015629 114.299414,63.1780595 114.30918,63.2529297 C114.318945,63.3277999 114.330338,63.4075517 114.343359,63.4921875 L114.382422,63.8046875 C114.395443,63.9088547 114.401953,64.0162755 114.401953,64.1269531 C114.401953,64.2636726 114.362891,64.3564451 114.284766,64.4052734 C114.20664,64.4541018 114.102475,64.4785156 113.972266,64.4785156 C113.881119,64.4785156 113.783464,64.4720053 113.679297,64.4589844 C113.57513,64.4459635 113.474219,64.4199221 113.376563,64.3808594 C113.278906,64.3417967 113.191016,64.2897139 113.112891,64.2246094 C113.034765,64.1595049 112.976172,64.0748703 112.937109,63.9707031 C112.917578,63.8925777 112.898047,63.7460948 112.878516,63.53125 C112.858984,63.3164052 112.842708,63.0771498 112.829688,62.8134766 C112.816667,62.5498034 112.805273,62.2845065 112.795508,62.0175781 C112.785742,61.7506497 112.777604,61.5292978 112.771094,61.3535156 C112.771094,61.3144529 112.769466,61.2819012 112.766211,61.2558594 C112.762956,61.2298176 112.761328,61.2037762 112.761328,61.1777344 C112.709245,61.1321612 112.663672,61.0768232 112.624609,61.0117188 C112.585547,60.9466143 112.566016,60.8847659 112.566016,60.8261719 C112.566016,60.741536 112.582292,60.666667 112.614844,60.6015625 C112.647396,60.536458 112.683203,60.4746097 112.722266,60.4160156 C112.683203,59.6152304 112.663672,58.8177123 112.663672,58.0234375 C112.663672,57.3658821 112.67181,56.7132194 112.688086,56.0654297 C112.704362,55.41764 112.71901,54.7682324 112.732031,54.1171875 L112.761328,52.8085938 C112.767839,52.7434893 112.771094,52.6588547 112.771094,52.5546875 L112.771094,51.7734375 C112.771094,51.6171867 112.774349,51.4707038 112.780859,51.3339844 C112.78737,51.1972649 112.79388,51.0735683 112.800391,50.9628906 C112.806901,50.852213 112.819922,50.7708336 112.839453,50.71875 L112.839453,50.7285156 C112.865495,50.6308589 112.901302,50.559245 112.946875,50.5136719 C112.992448,50.4680987 113.070572,50.4453125 113.18125,50.4453125 C113.454689,50.4453125 113.666275,50.5266919 113.816016,50.6894531 C113.965756,50.8522144 114.040625,51.0703111 114.040625,51.34375 C114.040625,51.7799501 114.038997,52.2145161 114.035742,52.6474609 C114.032487,53.0804058 114.027604,53.5149718 114.021094,53.9511719 C114.014583,54.387372 114.009701,54.8219379 114.006445,55.2548828 C114.00319,55.6878277 114.001563,56.1223937 114.001563,56.5585938 C114.001563,56.7148445 114.00319,56.8727206 114.006445,57.0322266 C114.009701,57.1917326 114.011328,57.3528638 114.011328,57.515625 C114.017839,57.645834 114.021094,57.7792962 114.021094,57.9160156 L114.021094,58.3457031 L115.075781,56.6660156 L115.075781,56.6757812 L115.163672,56.5 C115.183203,56.4674478 115.194596,56.4446615 115.197852,56.4316406 C115.201107,56.4186197 115.207617,56.4007163 115.217383,56.3779297 C115.227148,56.3551431 115.249935,56.3177086 115.285742,56.265625 C115.32155,56.2135414 115.385026,56.1354172 115.476172,56.03125 C115.508724,55.9986978 115.547786,55.9694012 115.593359,55.9433594 C115.638933,55.9173176 115.697526,55.9042969 115.769141,55.9042969 C115.840756,55.9042969 115.913997,55.9254555 115.988867,55.9677734 C116.063737,56.0100914 116.130468,56.0638018 116.189063,56.1289062 C116.247657,56.1940107 116.296484,56.2656246 116.335547,56.34375 C116.37461,56.4218754 116.394141,56.4934893 116.394141,56.5585938 C116.394141,56.6106773 116.364844,56.7001947 116.30625,56.8271484 C116.247656,56.9541022 116.171159,57.108723 116.076758,57.2910156 C115.982356,57.4733082 115.876563,57.6702463 115.759375,57.8818359 C115.642187,58.0934255 115.520118,58.3066396 115.393164,58.5214844 C115.26621,58.7363292 115.144141,58.9446604 115.026953,59.1464844 C114.909765,59.3483083 114.805599,59.527343 114.714453,59.6835938 L114.460547,60.09375 C114.610287,60.354168 114.784439,60.642251 114.983008,60.9580078 C115.181577,61.2737646 115.391535,61.5911442 115.612891,61.9101562 C115.834246,62.2291683 116.060481,62.5351548 116.291602,62.828125 C116.522723,63.1210952 116.748957,63.3782541 116.970313,63.5996094 L117.067969,63.6777344 C117.146094,63.7363284 117.227474,63.8063147 117.312109,63.8876953 C117.396745,63.9690759 117.439063,64.0553381 117.439063,64.1464844 Z M125.319141,59.9960938 C125.319141,60.5625028 125.271941,61.1272758 125.177539,61.6904297 C125.083138,62.2535835 124.889455,62.7858048 124.596484,63.2871094 C124.505338,63.4368497 124.401172,63.581705 124.283984,63.7216797 C124.166796,63.8616543 124.038217,63.9886062 123.898242,64.1025391 C123.758268,64.2164719 123.605274,64.3076168 123.439258,64.3759766 C123.273241,64.4443363 123.099089,64.4785156 122.916797,64.4785156 C122.630337,64.4785156 122.381316,64.4117845 122.169727,64.2783203 C121.958137,64.1448561 121.775847,63.9690766 121.622852,63.7509766 C121.469856,63.5328765 121.342904,63.2854832 121.241992,63.0087891 C121.14108,62.732095 121.062956,62.4488947 121.007617,62.1591797 C120.952278,61.8694647 120.913216,61.587892 120.89043,61.3144531 C120.867643,61.0410143 120.85625,60.8001312 120.85625,60.5917969 C120.85625,60.3574207 120.866016,60.1002618 120.885547,59.8203125 C120.905078,59.5403632 120.939258,59.2539077 120.988086,58.9609375 C121.036914,58.6679673 121.102018,58.3782566 121.183398,58.0917969 C121.264779,57.8053371 121.370572,57.5367851 121.500781,57.2861328 C121.63099,57.0354805 121.787239,56.8108734 121.969531,56.6123047 C122.151824,56.413736 122.36341,56.25586 122.604297,56.1386719 L122.604297,56.1484375 C122.812631,56.0377599 123.020963,55.9824219 123.229297,55.9824219 C123.359506,55.9824219 123.460416,56.0100909 123.532031,56.0654297 C123.603646,56.1207685 123.636198,56.213541 123.629688,56.34375 C123.987762,56.4088545 124.277473,56.5813788 124.498828,56.8613281 C124.720183,57.1412774 124.89108,57.466795 125.011523,57.8378906 C125.131967,58.2089862 125.213346,58.5898418 125.255664,58.9804688 C125.297982,59.3710957 125.319141,59.709634 125.319141,59.9960938 Z M123.112109,57.5546875 C123.001432,57.5546875 122.897266,57.5123702 122.799609,57.4277344 C122.675911,57.6165374 122.571745,57.8330066 122.487109,58.0771484 C122.402474,58.3212903 122.335742,58.5719388 122.286914,58.8291016 C122.238086,59.0862643 122.203906,59.3450508 122.184375,59.6054688 C122.164844,59.8658867 122.155078,60.1100249 122.155078,60.3378906 C122.155078,60.5266937 122.164844,60.7692042 122.184375,61.0654297 C122.203906,61.3616551 122.241341,61.6595037 122.29668,61.9589844 C122.352019,62.258465 122.430143,62.5384102 122.531055,62.7988281 C122.631967,63.0592461 122.763801,63.2513015 122.926563,63.375 C123.128386,63.2578119 123.296028,63.0706393 123.429492,62.8134766 C123.562956,62.5563138 123.66875,62.2747411 123.746875,61.96875 C123.825,61.6627589 123.878711,61.3535172 123.908008,61.0410156 C123.937305,60.7285141 123.951953,60.4615896 123.951953,60.2402344 C123.951953,60.0774731 123.942188,59.8658867 123.922656,59.6054688 C123.903125,59.3450508 123.870573,59.079754 123.825,58.8095703 C123.779427,58.5393867 123.715951,58.2871105 123.63457,58.0527344 C123.55319,57.8183582 123.450652,57.6425787 123.326953,57.5253906 C123.268359,57.544922 123.196745,57.5546875 123.112109,57.5546875 Z M128.033594,63.9511719 C128.033594,64.1009122 127.989649,64.1985675 127.901758,64.2441406 C127.813867,64.2897138 127.708074,64.3125 127.584375,64.3125 C127.473697,64.3125 127.364649,64.3043621 127.257227,64.2880859 C127.149804,64.2718098 127.048894,64.2408856 126.954492,64.1953125 C126.860091,64.1497394 126.778711,64.087891 126.710352,64.0097656 C126.641992,63.9316402 126.594792,63.8307298 126.56875,63.7070312 C126.477604,63.3164043 126.425521,62.9339211 126.4125,62.5595703 C126.399479,62.1852195 126.392969,61.7994812 126.392969,61.4023438 L126.392969,60.2011719 C126.392969,59.6542941 126.415755,59.086266 126.461328,58.4970703 C126.506901,57.9078747 126.555729,57.3398465 126.607813,56.7929688 C126.607813,56.7734374 126.611068,56.7506512 126.617578,56.7246094 C126.624089,56.6985676 126.627344,56.6790365 126.627344,56.6660156 C126.633854,56.5944007 126.64362,56.5162765 126.656641,56.4316406 C126.669662,56.3470048 126.69082,56.2705082 126.720117,56.2021484 C126.749414,56.1337887 126.791732,56.0768231 126.84707,56.03125 C126.902409,55.9856769 126.975651,55.9628906 127.066797,55.9628906 C127.170964,55.9628906 127.270247,55.9840493 127.364648,56.0263672 C127.45905,56.0686851 127.542057,56.1240231 127.613672,56.1923828 C127.685287,56.2607425 127.742252,56.3437495 127.78457,56.4414062 C127.826888,56.539063 127.848047,56.6399734 127.848047,56.7441406 C127.848047,56.8548183 127.844792,56.9768874 127.838281,57.1103516 C127.831771,57.2438158 127.822005,57.36914 127.808984,57.4863281 C127.808984,57.5188804 127.807357,57.5546873 127.804102,57.59375 C127.800846,57.6328127 127.795964,57.6686196 127.789453,57.7011719 C127.880599,57.5188793 127.984765,57.3284515 128.101953,57.1298828 C128.219141,56.9313141 128.354231,56.7490243 128.507227,56.5830078 C128.660222,56.4169914 128.829491,56.2819016 129.015039,56.1777344 C129.200587,56.0735672 129.407291,56.0214844 129.635156,56.0214844 C129.823959,56.0214844 129.980208,56.050781 130.103906,56.109375 C130.227605,56.167969 130.326888,56.250976 130.401758,56.3583984 C130.476628,56.4658208 130.528711,56.5911451 130.558008,56.734375 C130.587305,56.8776049 130.601953,57.0305981 130.601953,57.1933594 C130.601953,57.4147146 130.595443,57.6376942 130.582422,57.8623047 C130.569401,58.0869152 130.55638,58.3098947 130.543359,58.53125 C130.523828,58.7591157 130.507552,58.9837229 130.494531,59.2050781 C130.48151,59.4264334 130.475,59.6510405 130.475,59.8789062 C130.475,60.1523451 130.48151,60.4339178 130.494531,60.7236328 C130.507552,61.0133478 130.527083,61.2900377 130.553125,61.5537109 C130.579167,61.8173841 130.608463,62.055012 130.641016,62.2666016 C130.673568,62.4781912 130.70612,62.6425775 130.738672,62.7597656 C130.764714,62.8574224 130.792383,62.9697259 130.82168,63.0966797 C130.850977,63.2236334 130.880273,63.3538405 130.90957,63.4873047 C130.938867,63.6207689 130.963281,63.7493483 130.982813,63.8730469 C131.002344,63.9967454 131.012109,64.1074214 131.012109,64.2050781 C131.012109,64.348308 130.955144,64.4394529 130.841211,64.4785156 C130.727278,64.5175783 130.614975,64.5371094 130.504297,64.5371094 C130.393619,64.5371094 130.268295,64.5289714 130.12832,64.5126953 C129.988346,64.4964192 129.863021,64.4589847 129.752344,64.4003906 C129.615624,64.3027339 129.526107,64.1660165 129.483789,63.9902344 C129.441471,63.8144522 129.413802,63.6419279 129.400781,63.4726562 L129.371484,63.2089844 C129.351953,63.0527336 129.325912,62.8476575 129.293359,62.59375 C129.260807,62.3398425 129.229883,62.0598974 129.200586,61.7539062 C129.171289,61.4479151 129.146875,61.1305355 129.127344,60.8017578 C129.107812,60.4729801 129.098047,60.1523453 129.098047,59.8398438 C129.098047,59.5598944 129.10944,59.2897148 129.132227,59.0292969 C129.155013,58.7688789 129.179427,58.5052097 129.205469,58.2382812 C129.21849,58.1015618 129.228255,57.9908858 129.234766,57.90625 C129.241276,57.8216142 129.251042,57.7109382 129.264063,57.5742188 C129.133854,57.7825531 129.003647,58.0266913 128.873438,58.3066406 C128.743229,58.5865899 128.619532,58.8779282 128.502344,59.1806641 C128.385156,59.4834 128.279362,59.7779934 128.184961,60.0644531 C128.090559,60.3509129 128.017318,60.6015614 127.965234,60.8164062 L127.906641,61.03125 C127.874088,61.1354172 127.846419,61.2395828 127.823633,61.34375 C127.800846,61.4479172 127.789453,61.5455725 127.789453,61.6367188 C127.789453,61.7539068 127.795964,61.8889966 127.808984,62.0419922 C127.822005,62.1949877 127.838281,62.3398431 127.857813,62.4765625 C127.877344,62.6393237 127.90013,62.8053377 127.926172,62.9746094 C127.926172,62.9876303 127.932682,63.0299476 127.945703,63.1015625 C127.958724,63.1731774 127.971745,63.257812 127.984766,63.3554688 C127.997787,63.4531255 128.00918,63.5556635 128.018945,63.6630859 C128.028711,63.7705083 128.033594,63.866536 128.033594,63.9511719 Z M137.632422,63.7558594 C137.632422,63.8274743 137.616146,63.8876951 137.583594,63.9365234 C137.551042,63.9853518 137.510352,64.0227863 137.461523,64.0488281 C137.412695,64.0748699 137.360612,64.0927734 137.305273,64.1025391 C137.249935,64.1123047 137.196224,64.1171875 137.144141,64.1171875 C137.072526,64.1171875 136.989519,64.1090496 136.895117,64.0927734 C136.800716,64.0764973 136.707943,64.0520835 136.616797,64.0195312 C136.525651,63.986979 136.442644,63.9462893 136.367773,63.8974609 C136.292903,63.8486326 136.235938,63.7884118 136.196875,63.7167969 C136.157812,63.6516924 136.123633,63.5296233 136.094336,63.3505859 C136.065039,63.1715486 136.040625,62.9632173 136.021094,62.7255859 C136.001562,62.4879545 135.985287,62.2340508 135.972266,61.9638672 C135.959245,61.6936835 135.947852,61.4348971 135.938086,61.1875 C135.92832,60.9401029 135.92181,60.7171234 135.918555,60.5185547 C135.915299,60.319986 135.913672,60.1718755 135.913672,60.0742188 C135.913672,59.6184873 135.92181,59.177411 135.938086,58.7509766 C135.954362,58.3245421 135.972266,57.886721 135.991797,57.4375 C135.959245,57.4375 135.926693,57.4407552 135.894141,57.4472656 C135.861588,57.4537761 135.829037,57.4570312 135.796484,57.4570312 C135.711849,57.4700521 135.625586,57.4798177 135.537695,57.4863281 C135.449804,57.4928386 135.360287,57.4960938 135.269141,57.4960938 C135.158463,57.4960938 135.060808,57.4765627 134.976172,57.4375 C134.891536,57.3984373 134.849219,57.3105476 134.849219,57.1738281 C134.849219,57.0110669 134.885026,56.8808599 134.956641,56.7832031 C135.028256,56.6855464 135.119401,56.6090498 135.230078,56.5537109 C135.340756,56.4983721 135.461197,56.45931 135.591406,56.4365234 C135.721615,56.4137369 135.848567,56.3958334 135.972266,56.3828125 C135.991797,56.3828125 136.004818,56.3811849 136.011328,56.3779297 C136.017839,56.3746745 136.030859,56.3730469 136.050391,56.3730469 C136.056901,56.2949215 136.063411,56.1988938 136.069922,56.0849609 C136.076432,55.9710281 136.082943,55.8457038 136.089453,55.7089844 C136.095964,55.4941396 136.105729,55.2646497 136.11875,55.0205078 C136.131771,54.776366 136.144792,54.5419933 136.157813,54.3173828 C136.170833,54.0927723 136.187109,53.8942066 136.206641,53.7216797 C136.226172,53.5491528 136.245703,53.4270837 136.265234,53.3554688 C136.297787,53.2708329 136.335221,53.2024742 136.377539,53.1503906 C136.419857,53.098307 136.499609,53.0722656 136.616797,53.0722656 C136.877215,53.0722656 137.079036,53.1569002 137.222266,53.3261719 C137.365496,53.4954436 137.437109,53.7037748 137.437109,53.9511719 C137.437109,54.2376316 137.428971,54.5240871 137.412695,54.8105469 C137.396419,55.0970066 137.381771,55.3867173 137.36875,55.6796875 L137.339453,56.1777344 C137.502214,56.158203 137.664973,56.1289064 137.827734,56.0898438 C137.983985,56.0572915 138.141861,56.0279949 138.301367,56.0019531 C138.460873,55.9759113 138.615494,55.9628906 138.765234,55.9628906 C138.895443,55.9628906 138.996354,55.99707 139.067969,56.0654297 C139.139584,56.1337894 139.175391,56.2330723 139.175391,56.3632812 C139.175391,56.5065111 139.149349,56.6464837 139.097266,56.7832031 C139.045182,56.9199226 138.954037,57.0240882 138.823828,57.0957031 L138.833594,57.0957031 C138.807552,57.108724 138.729428,57.1266275 138.599219,57.1494141 C138.46901,57.1722006 138.320899,57.1933593 138.154883,57.2128906 C137.988866,57.232422 137.826108,57.251953 137.666602,57.2714844 C137.507096,57.2910157 137.388282,57.3040364 137.310156,57.3105469 L137.300391,57.3105469 C137.28737,57.675132 137.277604,58.034829 137.271094,58.3896484 C137.264583,58.7444679 137.261328,59.1041648 137.261328,59.46875 C137.261328,59.9700546 137.275976,60.5022758 137.305273,61.0654297 C137.33457,61.6285835 137.385026,62.16406 137.456641,62.671875 L137.534766,63.1113281 C137.560807,63.2220058 137.583594,63.3310542 137.603125,63.4384766 C137.622656,63.545899 137.632422,63.6516922 137.632422,63.7558594 Z M144.419141,63.4726562 C144.419141,63.6028652 144.376823,63.6972653 144.292188,63.7558594 C144.207552,63.8144534 144.103386,63.84375 143.979688,63.84375 C143.901562,63.84375 143.820183,63.8356121 143.735547,63.8193359 C143.650911,63.8030598 143.569532,63.7851563 143.491406,63.765625 C143.354687,63.7265623 143.248894,63.6777347 143.174023,63.6191406 C143.099153,63.5605466 143.042188,63.4938155 143.003125,63.4189453 C142.964062,63.3440751 142.939649,63.2610682 142.929883,63.1699219 C142.920117,63.0787756 142.911979,62.9778651 142.905469,62.8671875 C142.905469,62.8346353 142.903841,62.8053387 142.900586,62.7792969 C142.897331,62.7532551 142.895703,62.7272137 142.895703,62.7011719 C142.876172,62.3300763 142.858268,61.9492207 142.841992,61.5585938 C142.825716,61.1679668 142.817578,60.7871112 142.817578,60.4160156 C142.817578,60.2272126 142.819206,60.0384124 142.822461,59.8496094 C142.825716,59.6608063 142.830599,59.4720062 142.837109,59.2832031 C142.84362,59.0944001 142.848503,58.9072275 142.851758,58.7216797 C142.855013,58.5361319 142.856641,58.3489593 142.856641,58.1601562 C142.856641,58.1210936 142.855013,58.083659 142.851758,58.0478516 C142.848503,58.0120441 142.84362,57.9746096 142.837109,57.9355469 C142.667838,58.1829439 142.519727,58.4580063 142.392773,58.7607422 C142.26582,59.0634781 142.153516,59.375975 142.055859,59.6982422 C141.958203,60.0205094 141.875196,60.3427718 141.806836,60.6650391 C141.738476,60.9873063 141.681511,61.2949204 141.635938,61.5878906 L141.606641,61.7929688 C141.574088,62.0208345 141.541537,62.2535795 141.508984,62.4912109 C141.476432,62.7288423 141.460156,62.9648426 141.460156,63.1992188 C141.460156,63.2968755 141.476432,63.4042963 141.508984,63.5214844 C141.522005,63.573568 141.533398,63.6240232 141.543164,63.6728516 C141.55293,63.7216799 141.557813,63.7819007 141.557813,63.8535156 C141.557813,64.0097664 141.51875,64.1155596 141.440625,64.1708984 C141.3625,64.2262373 141.258334,64.2539062 141.128125,64.2539062 C141.05,64.2539062 140.963737,64.2473959 140.869336,64.234375 C140.774934,64.2213541 140.68379,64.2001955 140.595898,64.1708984 C140.508007,64.1416014 140.425,64.1041669 140.346875,64.0585938 C140.26875,64.0130206 140.206901,63.9544274 140.161328,63.8828125 C140.122265,63.7981767 140.084831,63.5735695 140.049023,63.2089844 C140.013216,62.8443992 139.980664,62.3919298 139.951367,61.8515625 C139.92207,61.3111952 139.894401,60.7041049 139.868359,60.0302734 C139.842318,59.3564419 139.817904,58.6647171 139.795117,57.9550781 C139.772331,57.2454392 139.7528,56.5423212 139.736523,55.8457031 C139.720247,55.1490851 139.707227,54.5078154 139.697461,53.921875 C139.687695,53.3359346 139.679557,52.8264996 139.673047,52.3935547 C139.666536,51.9606098 139.663281,51.6562509 139.663281,51.4804688 C139.663281,51.3502598 139.681185,51.2314458 139.716992,51.1240234 C139.7528,51.016601 139.855338,50.9628906 140.024609,50.9628906 C140.200392,50.9628906 140.366406,51.0035803 140.522656,51.0849609 C140.678907,51.1663416 140.792838,51.2916658 140.864453,51.4609375 C140.877474,51.4869793 140.890495,51.5927725 140.903516,51.7783203 C140.916537,51.9638681 140.929557,52.2014959 140.942578,52.4912109 C140.955599,52.7809259 140.96862,53.1129539 140.981641,53.4873047 C140.994662,53.8616555 141.007682,54.2490214 141.020703,54.6494141 C141.033724,55.0498067 141.046745,55.4518209 141.059766,55.8554688 C141.072787,56.2591166 141.085807,56.636717 141.098828,56.9882812 L141.147656,58.4335938 C141.225782,58.2317698 141.323437,58.0201834 141.440625,57.7988281 C141.557813,57.5774729 141.692903,57.375652 141.845898,57.1933594 C141.998894,57.0110668 142.171418,56.8613287 142.363477,56.7441406 C142.555535,56.6269525 142.768749,56.5683594 143.003125,56.5683594 C143.289585,56.5683594 143.514192,56.6432284 143.676953,56.7929688 C143.839714,56.9427091 143.961783,57.1282541 144.043164,57.3496094 C144.124545,57.5709646 144.175,57.8085925 144.194531,58.0625 C144.214063,58.3164075 144.223828,58.547525 144.223828,58.7558594 C144.223828,58.8860684 144.222201,59.0130202 144.218945,59.1367188 C144.21569,59.2604173 144.210807,59.384114 144.204297,59.5078125 C144.197786,59.6380215 144.192904,59.7666009 144.189648,59.8935547 C144.186393,60.0205084 144.184766,60.1490879 144.184766,60.2792969 C144.184766,60.7285179 144.194531,61.1891252 144.214063,61.6611328 C144.233594,62.1331404 144.282422,62.5970029 144.360547,63.0527344 L144.380078,63.1894531 C144.393099,63.2285158 144.402865,63.2740883 144.409375,63.3261719 C144.415885,63.3782555 144.419141,63.4270831 144.419141,63.4726562 Z M149.438281,62.2128906 C149.438281,62.4082041 149.384571,62.610025 149.277148,62.8183594 C149.169726,63.0266937 149.031381,63.2171215 148.862109,63.3896484 C148.692838,63.5621753 148.499155,63.7037755 148.281055,63.8144531 C148.062955,63.9251308 147.846485,63.9804688 147.631641,63.9804688 C147.32565,63.9804688 147.06198,63.920248 146.840625,63.7998047 C146.61927,63.6793614 146.427214,63.5166026 146.264453,63.3115234 C146.101692,63.1064443 145.969857,62.8736992 145.868945,62.6132812 C145.768033,62.3528633 145.688282,62.0843113 145.629688,61.8076172 C145.571094,61.5309231 145.530404,61.2542332 145.507617,60.9775391 C145.484831,60.700845 145.473438,60.4485688 145.473438,60.2207031 C145.473438,60.0253896 145.484831,59.7942722 145.507617,59.5273438 C145.530404,59.2604153 145.569466,58.9837254 145.624805,58.6972656 C145.680144,58.4108059 145.75664,58.1276056 145.854297,57.8476562 C145.951954,57.5677069 146.074023,57.3170584 146.220508,57.0957031 C146.366993,56.8743479 146.542772,56.6953132 146.747852,56.5585938 C146.952931,56.4218743 147.188931,56.3535156 147.455859,56.3535156 C147.664194,56.3535156 147.851366,56.3958329 148.017383,56.4804688 C148.183399,56.5651046 148.323372,56.6774082 148.437305,56.8173828 C148.551238,56.9573575 148.639127,57.1184887 148.700977,57.3007812 C148.762826,57.4830738 148.79375,57.671874 148.79375,57.8671875 C148.79375,58.121095 148.735157,58.397785 148.617969,58.6972656 C148.500781,58.9967463 148.349415,59.2864569 148.163867,59.5664062 C147.978319,59.8463556 147.769988,60.0986317 147.538867,60.3232422 C147.307746,60.5478527 147.078256,60.7187494 146.850391,60.8359375 C146.863412,60.9531256 146.889453,61.1240223 146.928516,61.3486328 C146.967578,61.5732433 147.021289,61.7962229 147.089648,62.0175781 C147.158008,62.2389334 147.239388,62.4309888 147.333789,62.59375 C147.428191,62.7565112 147.540494,62.8378906 147.670703,62.8378906 C147.735808,62.8378906 147.792773,62.8183596 147.841602,62.7792969 C147.89043,62.7402342 147.934375,62.6881514 147.973438,62.6230469 C148.0125,62.5579424 148.04668,62.4863285 148.075977,62.4082031 C148.105274,62.3300777 148.132943,62.2552087 148.158984,62.1835938 L148.217578,62.046875 C148.230599,62.0273437 148.238737,62.0143229 148.241992,62.0078125 L148.256641,61.9785156 C148.302214,61.8938798 148.346159,61.8157556 148.388477,61.7441406 C148.430795,61.6725257 148.491015,61.6106773 148.569141,61.5585938 L148.559375,61.5585938 C148.585417,61.532552 148.613086,61.5179037 148.642383,61.5146484 C148.67168,61.5113932 148.699349,61.5097656 148.725391,61.5097656 C148.797006,61.5097656 148.87513,61.5325519 148.959766,61.578125 C149.044402,61.6236981 149.122526,61.6806637 149.194141,61.7490234 C149.265756,61.8173832 149.324349,61.8922522 149.369922,61.9736328 C149.415495,62.0550134 149.438281,62.1347652 149.438281,62.2128906 Z M147.504688,57.90625 C147.504688,57.8411455 147.501432,57.7727868 147.494922,57.7011719 C147.488411,57.6295569 147.472136,57.5677086 147.446094,57.515625 C147.354948,57.6263026 147.275196,57.7581373 147.206836,57.9111328 C147.138476,58.0641284 147.081511,58.223632 147.035938,58.3896484 C146.990364,58.5556649 146.95293,58.7233064 146.923633,58.8925781 C146.894336,59.0618498 146.873177,59.2180982 146.860156,59.3613281 C147.029428,59.1595042 147.179166,58.9300143 147.309375,58.6728516 C147.439584,58.4156888 147.504688,58.1601575 147.504688,57.90625 Z M154.964844,61.4609375 C154.964844,61.7734391 154.963216,62.0598945 154.959961,62.3203125 C154.956706,62.5807305 154.961589,62.8671859 154.974609,63.1796875 L155.150391,63.0527344 L155.257813,62.984375 C155.576825,62.7304675 155.855142,62.4195982 156.092773,62.0517578 C156.330405,61.6839174 156.527343,61.2916687 156.683594,60.875 C156.839845,60.4583313 156.955403,60.0302756 157.030273,59.5908203 C157.105144,59.151365 157.142578,58.7330749 157.142578,58.3359375 C157.142578,58.2578121 157.140951,58.1487637 157.137695,58.0087891 C157.13444,57.8688144 157.119792,57.7304694 157.09375,57.59375 C157.067708,57.4570306 157.028646,57.3382167 156.976563,57.2373047 C156.924479,57.1363927 156.84961,57.0859375 156.751953,57.0859375 C156.595702,57.0859375 156.436199,57.1803376 156.273438,57.3691406 C156.110676,57.5579437 155.959311,57.7825508 155.819336,58.0429688 C155.679361,58.3033867 155.554037,58.5654284 155.443359,58.8291016 C155.332682,59.0927748 155.251302,59.2994784 155.199219,59.4492188 C155.199219,59.4557292 155.197591,59.4589844 155.194336,59.4589844 C155.191081,59.4589844 155.189453,59.4622396 155.189453,59.46875 L155.189453,59.4785156 C155.15039,59.5696619 155.109701,59.6673172 155.067383,59.7714844 C155.025065,59.8756516 154.997396,59.9733068 154.984375,60.0644531 C154.971354,60.1555994 154.961589,60.2581375 154.955078,60.3720703 C154.948568,60.4860032 154.945313,60.6048171 154.945313,60.7285156 C154.945313,60.7936201 154.94694,60.857096 154.950195,60.9189453 C154.953451,60.9807946 154.955078,61.0377602 154.955078,61.0898438 C154.955078,61.1614587 154.956706,61.2281898 154.959961,61.2900391 C154.963216,61.3518883 154.964844,61.4088539 154.964844,61.4609375 Z M155.501953,70.3867188 C155.501953,70.5299486 155.462891,70.6276039 155.384766,70.6796875 C155.30664,70.7317711 155.202475,70.7578125 155.072266,70.7578125 C154.916015,70.7578125 154.743491,70.7333987 154.554688,70.6845703 C154.365885,70.6357419 154.216146,70.5462246 154.105469,70.4160156 C154.072917,70.3704425 154.041992,70.2369803 154.012695,70.015625 C153.983398,69.7942697 153.955729,69.5354833 153.929688,69.2392578 C153.903646,68.9430324 153.88086,68.6370458 153.861328,68.3212891 C153.841797,68.0055323 153.822266,67.7272147 153.802734,67.4863281 L153.763672,66.96875 C153.685547,65.5755139 153.646484,64.1822986 153.646484,62.7890625 C153.646484,61.9752563 153.661133,61.1761107 153.69043,60.3916016 C153.719727,59.6070924 153.750651,58.811202 153.783203,58.0039062 L153.822266,56.9785156 C153.822266,56.8743484 153.823893,56.7718104 153.827148,56.6708984 C153.830404,56.5699865 153.841797,56.4707036 153.861328,56.3730469 C153.89388,56.288411 153.93457,56.2216799 153.983398,56.1728516 C154.032227,56.1240232 154.111979,56.0996094 154.222656,56.0996094 C154.502606,56.0996094 154.707682,56.1826164 154.837891,56.3486328 C154.9681,56.5146493 155.042969,56.7180978 155.0625,56.9589844 C155.270834,56.6725246 155.519855,56.4446623 155.80957,56.2753906 C156.099285,56.1061189 156.432941,56.0214844 156.810547,56.0214844 C157.129559,56.0214844 157.398111,56.0930982 157.616211,56.2363281 C157.834311,56.379558 158.008463,56.5634754 158.138672,56.7880859 C158.268881,57.0126964 158.361653,57.263345 158.416992,57.5400391 C158.472331,57.8167332 158.5,58.0885403 158.5,58.3554688 C158.5,58.8697942 158.454428,59.3824844 158.363281,59.8935547 C158.272135,60.404625 158.130535,60.8994117 157.938477,61.3779297 C157.746418,61.8564477 157.503908,62.3089171 157.210938,62.7353516 C156.917967,63.161786 156.572919,63.541014 156.175781,63.8730469 C156.123698,63.91862 156.061849,63.9674477 155.990234,64.0195312 C155.918619,64.0716148 155.84375,64.1204425 155.765625,64.1660156 C155.6875,64.2115888 155.607748,64.2506509 155.526367,64.2832031 C155.444987,64.3157554 155.371745,64.3320312 155.306641,64.3320312 C155.235026,64.3320312 155.173177,64.3157554 155.121094,64.2832031 C155.06901,64.2506509 155.023438,64.2115888 154.984375,64.1660156 C154.997396,64.6152366 155.015299,65.0807268 155.038086,65.5625 C155.060873,66.0442732 155.088542,66.5276668 155.121094,67.0126953 C155.153646,67.4977238 155.194336,67.9778622 155.243164,68.453125 C155.291992,68.9283878 155.352213,69.3873676 155.423828,69.8300781 C155.44336,69.914714 155.461263,70.0042313 155.477539,70.0986328 C155.493815,70.1930343 155.501953,70.289062 155.501953,70.3867188 Z M163.636328,63.8730469 C163.636328,64.0032559 163.603776,64.0927732 163.538672,64.1416016 C163.473567,64.1904299 163.382423,64.2148438 163.265234,64.2148438 C162.959243,64.2148438 162.739519,64.1334644 162.606055,63.9707031 C162.472591,63.8079419 162.373308,63.5931003 162.308203,63.3261719 C162.288672,63.2350256 162.269141,63.1422531 162.249609,63.0478516 C162.230078,62.95345 162.213802,62.8606775 162.200781,62.7695312 C162.18776,62.6848954 162.17474,62.6263022 162.161719,62.59375 C162.148698,62.5611978 162.135677,62.4993494 162.122656,62.4082031 C162.044531,62.5970062 161.948503,62.7939443 161.83457,62.9990234 C161.720638,63.2041026 161.588803,63.3929028 161.439063,63.5654297 C161.289322,63.7379566 161.121681,63.8795567 160.936133,63.9902344 C160.750585,64.100912 160.547137,64.15625 160.325781,64.15625 C160.091405,64.15625 159.896095,64.0992844 159.739844,63.9853516 C159.583593,63.8714187 159.461524,63.728191 159.373633,63.5556641 C159.285742,63.3831372 159.223893,63.1927094 159.188086,62.984375 C159.152279,62.7760406 159.134375,62.5774749 159.134375,62.3886719 C159.134375,61.9459613 159.17832,61.4658229 159.266211,60.9482422 C159.354102,60.4306615 159.476171,59.9130885 159.632422,59.3955078 C159.788673,58.8779271 159.970963,58.3798852 160.179297,57.9013672 C160.387631,57.4228492 160.615494,57.0045591 160.862891,56.6464844 L160.862891,56.65625 L160.921484,56.5683594 C160.993099,56.4707026 161.076106,56.3649094 161.170508,56.2509766 C161.264909,56.1370437 161.377213,56.0800781 161.507422,56.0800781 C161.63112,56.0800781 161.738541,56.1337885 161.829688,56.2412109 C161.920834,56.3486333 161.985937,56.4609369 162.025,56.578125 C162.194272,56.6106772 162.330989,56.6513669 162.435156,56.7001953 C162.539324,56.7490237 162.620703,56.8092444 162.679297,56.8808594 C162.737891,56.9524743 162.776953,57.0354813 162.796484,57.1298828 C162.816016,57.2242843 162.825781,57.3268224 162.825781,57.4375 L162.825781,57.5839844 C162.825781,57.636068 162.822526,57.6881508 162.816016,57.7402344 C162.809505,57.792318 162.80625,57.8541663 162.80625,57.9257812 L162.80625,58.1210938 C162.80625,58.1861982 162.817643,58.2708328 162.84043,58.375 C162.863216,58.4791672 162.88763,58.586588 162.913672,58.6972656 L162.982031,59.0585938 C163.014584,59.2473968 163.042253,59.4622384 163.065039,59.703125 C163.087826,59.9440116 163.115495,60.1848946 163.148047,60.4257812 C163.174089,60.6731783 163.20013,60.9124337 163.226172,61.1435547 C163.252214,61.3746756 163.278255,61.5878896 163.304297,61.7832031 L163.538672,63.2285156 L163.567969,63.3945312 C163.58099,63.4791671 163.595638,63.5572913 163.611914,63.6289062 C163.62819,63.7005212 163.636328,63.7819006 163.636328,63.8730469 Z M161.4,58.2578125 C161.4,58.2447916 161.396745,58.223633 161.390234,58.1943359 C161.383724,58.1650389 161.377214,58.1341147 161.370703,58.1015625 C161.220963,58.4205745 161.089128,58.7672507 160.975195,59.1416016 C160.861263,59.5159524 160.766862,59.896808 160.691992,60.2841797 C160.617122,60.6715514 160.561784,61.0589173 160.525977,61.4462891 C160.490169,61.8336608 160.472266,62.1998681 160.472266,62.5449219 L160.472266,62.6328125 C160.472266,62.6588543 160.475521,62.6848957 160.482031,62.7109375 L160.482031,62.7207031 C160.638282,62.4798165 160.773372,62.1624369 160.887305,61.7685547 C161.001238,61.3746725 161.097265,60.9612652 161.175391,60.5283203 C161.253516,60.0953754 161.310482,59.6754578 161.346289,59.2685547 C161.382097,58.8616516 161.4,58.5247409 161.4,58.2578125 Z M169.632031,61.578125 C169.632031,61.6432295 169.614128,61.7197261 169.57832,61.8076172 C169.542513,61.8955083 169.49694,61.9866532 169.441602,62.0810547 C169.386263,62.1754562 169.326042,62.2714839 169.260938,62.3691406 C169.195833,62.4667974 169.133985,62.5546871 169.075391,62.6328125 L168.928906,62.8378906 L168.782422,63.0917969 L168.655469,63.3261719 C168.661979,63.4563809 168.671745,63.5963534 168.684766,63.7460938 C168.697787,63.8958341 168.710807,64.0390618 168.723828,64.1757812 C168.795443,64.8463575 168.858919,65.5299444 168.914258,66.2265625 C168.969597,66.9231806 168.997266,67.6067675 168.997266,68.2773438 C168.997266,68.6354185 168.967969,68.9983706 168.909375,69.3662109 C168.850781,69.7340513 168.741733,70.0660792 168.582227,70.3623047 C168.422721,70.6585301 168.202996,70.9010407 167.923047,71.0898438 C167.643098,71.2786468 167.285028,71.3730469 166.848828,71.3730469 C166.549348,71.3730469 166.295444,71.3177089 166.087109,71.2070312 C165.878775,71.0963536 165.711134,70.9482431 165.58418,70.7626953 C165.457226,70.5771475 165.364453,70.3606783 165.305859,70.1132812 C165.247265,69.8658842 165.217969,69.6087253 165.217969,69.3417969 C165.217969,68.8144505 165.279817,68.2806017 165.403516,67.7402344 C165.527214,67.1998671 165.688345,66.6660183 165.886914,66.1386719 C166.085483,65.6113255 166.311718,65.0953801 166.565625,64.5908203 C166.819533,64.0862605 167.076691,63.6028669 167.337109,63.140625 L167.337109,63.0966797 C167.337109,63.0804036 167.333854,63.0527346 167.327344,63.0136719 C167.242708,63.1699227 167.14668,63.3310539 167.039258,63.4970703 C166.931835,63.6630868 166.811394,63.8111973 166.67793,63.9414062 C166.544466,64.0716152 166.397983,64.179036 166.238477,64.2636719 C166.078971,64.3483077 165.901564,64.390625 165.70625,64.390625 C165.432811,64.390625 165.204949,64.3255215 165.022656,64.1953125 C164.840364,64.0651035 164.695508,63.8990896 164.588086,63.6972656 C164.480664,63.4954417 164.404167,63.2740897 164.358594,63.0332031 C164.313021,62.7923165 164.290234,62.5644542 164.290234,62.3496094 C164.290234,62.1022123 164.304883,61.8580741 164.33418,61.6171875 C164.363477,61.3763009 164.397656,61.1419282 164.436719,60.9140625 C164.501823,60.5494773 164.58483,60.1539735 164.685742,59.7275391 C164.786654,59.3011046 164.911978,58.8779318 165.061719,58.4580078 C165.211459,58.0380838 165.385611,57.64258 165.58418,57.2714844 C165.782748,56.9003888 166.015494,56.5846367 166.282422,56.3242188 L166.360547,56.2558594 C166.445183,56.1712235 166.542838,56.0882166 166.653516,56.0068359 C166.764193,55.9254553 166.878124,55.8847656 166.995313,55.8847656 C167.066928,55.8847656 167.130403,55.9042967 167.185742,55.9433594 C167.241081,55.9824221 167.288281,56.0328773 167.327344,56.0947266 C167.366407,56.1565758 167.397331,56.2233069 167.420117,56.2949219 C167.442904,56.3665368 167.454297,56.4348955 167.454297,56.5 C167.454297,56.5781254 167.425,56.66276 167.366406,56.7539062 L167.385938,56.7539062 C167.783075,56.7539062 168.049999,56.9361961 168.186719,57.3007812 C168.258334,57.3658857 168.312044,57.44401 168.347852,57.5351562 C168.383659,57.6263025 168.401563,57.7239578 168.401563,57.828125 C168.401563,57.8802086 168.398307,57.9371742 168.391797,57.9990234 C168.385286,58.0608727 168.375521,58.1178383 168.3625,58.1699219 C168.349479,58.2285159 168.339714,58.2838539 168.333203,58.3359375 C168.326693,58.3880211 168.323438,58.4368487 168.323438,58.4824219 C168.323438,58.6321622 168.326693,58.8177072 168.333203,59.0390625 C168.339714,59.2604178 168.349479,59.4915353 168.3625,59.7324219 C168.375521,59.9733085 168.390169,60.2093087 168.406445,60.4404297 C168.422722,60.6715506 168.43737,60.8717439 168.450391,61.0410156 C168.495964,60.9824216 168.549674,60.9303388 168.611524,60.8847656 C168.673373,60.8391925 168.746614,60.8164062 168.83125,60.8164062 C168.902865,60.8164062 168.985872,60.8424477 169.080274,60.8945312 C169.174675,60.9466148 169.262565,61.0117184 169.343945,61.0898438 C169.425326,61.1679691 169.493685,61.2509761 169.549024,61.3388672 C169.604362,61.4267583 169.632031,61.5065101 169.632031,61.578125 Z M166.946484,57.5546875 C166.946484,57.5156248 166.948112,57.4733075 166.951367,57.4277344 C166.954622,57.3821612 166.96276,57.3333336 166.975781,57.28125 L166.907422,57.3691406 C166.855338,57.4277347 166.806511,57.4830727 166.760938,57.5351562 C166.715364,57.5872398 166.673047,57.6425778 166.633984,57.7011719 C166.464713,57.9485689 166.316602,58.2692038 166.189649,58.6630859 C166.062695,59.0569681 165.956902,59.4703754 165.872266,59.9033203 C165.78763,60.3362652 165.724154,60.7610656 165.681836,61.1777344 C165.639518,61.5944031 165.618359,61.9524725 165.618359,62.2519531 C165.618359,62.4016935 165.621615,62.5514315 165.628125,62.7011719 C165.634636,62.8509122 165.667187,62.9973951 165.725781,63.140625 C165.816928,63.0429683 165.891797,62.937175 165.950391,62.8232422 C166.008985,62.7093093 166.064323,62.5904954 166.116406,62.4667969 C166.259636,62.1477849 166.383333,61.7766948 166.4875,61.3535156 C166.591667,60.9303364 166.676302,60.4941429 166.741406,60.0449219 C166.806511,59.5957009 166.855338,59.1546246 166.887891,58.7216797 C166.920443,58.2887348 166.939974,57.8997413 166.946484,57.5546875 Z M167.688672,67.984375 C167.688672,67.5416645 167.678906,67.1266295 167.659375,66.7392578 C167.639844,66.3518861 167.610547,65.9368512 167.571484,65.4941406 C167.454296,65.7740899 167.335482,66.0751937 167.215039,66.3974609 C167.094596,66.7197282 166.988803,67.0452458 166.897656,67.3740234 C166.80651,67.7028011 166.731641,68.0299463 166.673047,68.3554688 C166.614453,68.6809912 166.585156,68.9902329 166.585156,69.2832031 L166.585156,69.3515625 C166.585156,69.5013028 166.594922,69.662434 166.614453,69.8349609 C166.633985,70.0074878 166.695833,70.149088 166.8,70.2597656 L166.907422,70.2597656 C167.037631,70.2597656 167.146679,70.2158208 167.23457,70.1279297 C167.322461,70.0400386 167.395703,69.9277351 167.454297,69.7910156 C167.512891,69.6542962 167.558463,69.5013029 167.591016,69.3320312 C167.623568,69.1627596 167.646354,68.9934904 167.659375,68.8242188 C167.672396,68.6549471 167.680534,68.4954435 167.683789,68.3457031 C167.687044,68.1959628 167.688672,68.0755213 167.688672,67.984375 Z M174.065234,62.2128906 C174.065234,62.4082041 174.011524,62.610025 173.904102,62.8183594 C173.796679,63.0266937 173.658334,63.2171215 173.489063,63.3896484 C173.319791,63.5621753 173.126108,63.7037755 172.908008,63.8144531 C172.689908,63.9251308 172.473439,63.9804688 172.258594,63.9804688 C171.952603,63.9804688 171.688933,63.920248 171.467578,63.7998047 C171.246223,63.6793614 171.054168,63.5166026 170.891406,63.3115234 C170.728645,63.1064443 170.59681,62.8736992 170.495899,62.6132812 C170.394987,62.3528633 170.315235,62.0843113 170.256641,61.8076172 C170.198047,61.5309231 170.157357,61.2542332 170.13457,60.9775391 C170.111784,60.700845 170.100391,60.4485688 170.100391,60.2207031 C170.100391,60.0253896 170.111784,59.7942722 170.13457,59.5273438 C170.157357,59.2604153 170.196419,58.9837254 170.251758,58.6972656 C170.307097,58.4108059 170.383593,58.1276056 170.48125,57.8476562 C170.578907,57.5677069 170.700976,57.3170584 170.847461,57.0957031 C170.993946,56.8743479 171.169726,56.6953132 171.374805,56.5585938 C171.579884,56.4218743 171.815884,56.3535156 172.082813,56.3535156 C172.291147,56.3535156 172.47832,56.3958329 172.644336,56.4804688 C172.810352,56.5651046 172.950325,56.6774082 173.064258,56.8173828 C173.178191,56.9573575 173.26608,57.1184887 173.32793,57.3007812 C173.389779,57.4830738 173.420703,57.671874 173.420703,57.8671875 C173.420703,58.121095 173.36211,58.397785 173.244922,58.6972656 C173.127734,58.9967463 172.976368,59.2864569 172.79082,59.5664062 C172.605273,59.8463556 172.396941,60.0986317 172.16582,60.3232422 C171.934699,60.5478527 171.70521,60.7187494 171.477344,60.8359375 C171.490365,60.9531256 171.516406,61.1240223 171.555469,61.3486328 C171.594532,61.5732433 171.648242,61.7962229 171.716602,62.0175781 C171.784961,62.2389334 171.866341,62.4309888 171.960742,62.59375 C172.055144,62.7565112 172.167447,62.8378906 172.297656,62.8378906 C172.362761,62.8378906 172.419726,62.8183596 172.468555,62.7792969 C172.517383,62.7402342 172.561328,62.6881514 172.600391,62.6230469 C172.639453,62.5579424 172.673633,62.4863285 172.70293,62.4082031 C172.732227,62.3300777 172.759896,62.2552087 172.785938,62.1835938 L172.844531,62.046875 C172.857552,62.0273437 172.86569,62.0143229 172.868945,62.0078125 L172.883594,61.9785156 C172.929167,61.8938798 172.973112,61.8157556 173.01543,61.7441406 C173.057748,61.6725257 173.117968,61.6106773 173.196094,61.5585938 L173.186328,61.5585938 C173.21237,61.532552 173.240039,61.5179037 173.269336,61.5146484 C173.298633,61.5113932 173.326302,61.5097656 173.352344,61.5097656 C173.423959,61.5097656 173.502083,61.5325519 173.586719,61.578125 C173.671355,61.6236981 173.749479,61.6806637 173.821094,61.7490234 C173.892709,61.8173832 173.951302,61.8922522 173.996875,61.9736328 C174.042448,62.0550134 174.065234,62.1347652 174.065234,62.2128906 Z M172.131641,57.90625 C172.131641,57.8411455 172.128386,57.7727868 172.121875,57.7011719 C172.115365,57.6295569 172.099089,57.5677086 172.073047,57.515625 C171.981901,57.6263026 171.902149,57.7581373 171.833789,57.9111328 C171.765429,58.0641284 171.708464,58.223632 171.662891,58.3896484 C171.617318,58.5556649 171.579883,58.7233064 171.550586,58.8925781 C171.521289,59.0618498 171.50013,59.2180982 171.487109,59.3613281 C171.656381,59.1595042 171.806119,58.9300143 171.936328,58.6728516 C172.066537,58.4156888 172.131641,58.1601575 172.131641,57.90625 Z" id="How-it-will-look-on" fill="#90A4AE"></path>
        </g>
    </g>
</svg>